{
.appVersion = "1352";
classes = (
{
automatic = 1;

glyphs = (
{
glyphname = A;
layers = (
{
anchors = (
{
name = bottom;
position = "{235, 0}";
},
{
name = ogonek;
position = "{313, 52}";
},
{
name = top;
position = "{235, 680}";
}
);
layerId = "3DD6C797-E5ED-486C-89DE-75EDF9B2F8B8";
paths = (
{
closed = 1;
nodes = (
"467 613 LINE",
"488 558 LINE",
"22 686 LINE",
"76 716 LINE",
"13 484 LINE",
"-6 537 LINE",
"449 412 LINE",
"404 381 LINE"
);
},
{
closed = 1;
nodes = (
"230 147 LINE",
"54 195 LINE",
"15 49 LINE",
"191 1 LINE"
);
},
{
closed = 1;
nodes = (
"197 86 LINE",
"197 500 LINE",
"46 500 LINE",
"46 86 LINE"
);
},
{
closed = 1;
nodes = (
"455 147 LINE",
"279 195 LINE",
"240 49 LINE",
"416 1 LINE"
);
},
{
closed = 1;
nodes = (
"303 444 LINE",
"324 344 LINE",
"62 416 LINE",
"117 492 LINE",
"54 260 LINE",
"23 315 LINE",
"285 243 LINE",
"240 212 LINE"
);
},
{
closed = 1;
nodes = (
"422 86 LINE",
"422 526 LINE",
"271 526 LINE",
"271 86 LINE"
);
}
);
width = 470;
}
);
unicode = 0041;
},
{
glyphname = AE;
layers = (
{
anchors = (
{
name = bottom;
position = "{235, 0}";
},
{
name = ogonek;
position = "{423, 10}";
},
{
name = top;
position = "{235, 680}";
}
);
layerId = "3DD6C797-E5ED-486C-89DE-75EDF9B2F8B8";
paths = (
{
closed = 1;
nodes = (
"626 161 LINE",
"626 106 LINE",
"293 197 LINE",
"254 51 LINE",
"587 -40 LINE",
"563 -71 LINE"
);
},
{
closed = 1;
nodes = (
"422 86 LINE",
"422 482 LINE",
"271 482 LINE",
"271 86 LINE"
);
},
{
closed = 1;
nodes = (
"537 228 LINE",
"556 379 LINE",
"327 379 LINE",
"327 228 LINE"
);
},
{
closed = 1;
nodes = (
"673 652 LINE",
"703 601 LINE",
"222 646 LINE",
"270 685 LINE",
"248 446 LINE",
"220 495 LINE",
"690 450 LINE",
"651 412 LINE"
);
},
{
closed = 1;
nodes = (
"457 613 LINE",
"488 558 LINE",
"22 686 LINE",
"76 716 LINE",
"13 484 LINE",
"-6 537 LINE",
"449 412 LINE",
"394 381 LINE"
);
},
{
closed = 1;
nodes = (
"230 147 LINE",
"54 195 LINE",
"15 49 LINE",
"191 1 LINE"
);
},
{
closed = 1;
nodes = (
"197 86 LINE",
"197 500 LINE",
"46 500 LINE",
"46 86 LINE"
);
},
{
closed = 1;
nodes = (
"303 444 LINE",
"324 344 LINE",
"62 416 LINE",
"117 492 LINE",
"54 260 LINE",
"23 315 LINE",
"285 243 LINE",
"240 212 LINE"
);
},
{
closed = 1;
nodes = (
"422 86 LINE",
"422 526 LINE",
"271 526 LINE",
"271 86 LINE"
);
}
);
width = 684;
}
);
unicode = 00C6;
},
{
glyphname = B;
layers = (
{
layerId = "3DD6C797-E5ED-486C-89DE-75EDF9B2F8B8";
paths = (
{
closed = 1;
nodes = (
"241 -49 LINE",
"455 76 LINE",
"455 95 LINE",
"12 217 LINE",
"66 247 LINE",
"3 15 LINE",
"-16 68 LINE",
"439 -57 LINE"
);
},
{
closed = 1;
nodes = (
"230 171 LINE",
"230 490 LINE",
"79 490 LINE",
"79 171 LINE"
);
},
{
closed = 1;
nodes = (
"455 76 LINE",
"455 331 LINE",
"304 331 LINE",
"304 76 LINE"
);
},
{
closed = 1;
nodes = (
"455 331 LINE",
"201 401 LINE",
"274 477 LINE",
"202 211 LINE",
"156 256 LINE",
"416 185 LINE"
);
},
{
closed = 1;
nodes = (
"465 613 LINE",
"521 558 LINE",
"55 686 LINE",
"109 716 LINE",
"46 484 LINE",
"27 537 LINE",
"482 412 LINE",
"402 381 LINE"
);
},
{
closed = 1;
nodes = (
"455 375 LINE",
"455 576 LINE",
"304 576 LINE",
"304 333 LINE"
);
}
);
width = 470;
}
);
unicode = 0042;
},
{
glyphname = C;
layers = (
{
anchors = (
{
name = bottom;
position = "{206, 0}";
},
{
name = top;
position = "{246, 700}";
}
);
layerId = "3DD6C797-E5ED-486C-89DE-75EDF9B2F8B8";
paths = (
{
closed = 1;
nodes = (
"476 570 LINE",
"53 686 LINE",
"107 716 LINE",
"44 484 LINE",
"25 537 LINE",
"437 424 LINE"
);
},
{
closed = 1;
nodes = (
"356 177 LINE",
"375 111 LINE",
"46 206 LINE",
"61 239 LINE",
"1 6 LINE",
"9 62 LINE",
"375 -38 LINE",
"296 -58 LINE"
);
},
{
closed = 1;
nodes = (
"228 171 LINE",
"228 490 LINE",
"77 490 LINE",
"77 171 LINE"
);
},
{
closed = 1;
nodes = (
"525 41 LINE",
"474 -14 LINE",
"411 218 LINE",
"486 187 LINE",
"267 127 LINE",
"306 -19 LINE"
);
}
);
width = 491;
}
);
unicode = 0043;
},
{
glyphname = D;
layers = (
{
anchors = (
{
name = bottom;
position = "{246, -50}";
},
{
name = center;
position = "{246, 350}";
},
{
name = top;
position = "{246, 700}";
}
);
layerId = "3DD6C797-E5ED-486C-89DE-75EDF9B2F8B8";
paths = (
{
closed = 1;
nodes = (
"476 570 LINE",
"53 686 LINE",
"107 716 LINE",
"44 484 LINE",
"25 537 LINE",
"437 424 LINE"
);
},
{
closed = 1;
nodes = (
"228 171 LINE",
"228 490 LINE",
"77 490 LINE",
"77 171 LINE"
);
},
{
closed = 1;
nodes = (
"476 86 LINE",
"476 570 LINE",
"325 570 LINE",
"325 86 LINE"
);
},
{
closed = 1;
nodes = (
"396 177 LINE",
"411 105 LINE",
"46 206 LINE",
"61 239 LINE",
"1 6 LINE",
"9 62 LINE",
"375 -38 LINE",
"336 -58 LINE"
);
}
);
width = 491;
}
);
unicode = 0044;
},
{
glyphname = Eth;
layers = (
{
components = (
{
name = D;
}
);
layerId = "3DD6C797-E5ED-486C-89DE-75EDF9B2F8B8";
paths = (
{
closed = 1;
nodes = (
"311 444 LINE",
"332 344 LINE",
"19 430 LINE",
"75 492 LINE",
"12 260 LINE",
"-13 327 LINE",
"293 243 LINE",
"248 212 LINE"
);
}
);
width = 491;
}
);
unicode = 00D0;
},
{
glyphname = E;
layers = (
{
anchors = (
{
name = bottom;
position = "{224, 0}";
},
{
name = ogonek;
position = "{172, 52}";
},
{
name = top;
position = "{224, 700}";
},
{
name = topleft;
position = "{20, 700}";
}
);
layerId = "3DD6C797-E5ED-486C-89DE-75EDF9B2F8B8";
paths = (
{
closed = 1;
nodes = (
"389 161 LINE",
"389 106 LINE",
"56 197 LINE",
"17 51 LINE",
"350 -40 LINE",
"326 -71 LINE"
);
},
{
closed = 1;
nodes = (
"185 86 LINE",
"185 482 LINE",
"34 482 LINE",
"34 86 LINE"
);
},
{
closed = 1;
nodes = (
"300 228 LINE",
"319 379 LINE",
"90 379 LINE",
"90 228 LINE"
);
},
{
closed = 1;
nodes = (
"436 652 LINE",
"466 601 LINE",
"-15 646 LINE",
"33 685 LINE",
"11 446 LINE",
"-17 495 LINE",
"453 450 LINE",
"414 412 LINE"
);
}
);
width = 447;
}
);
unicode = 0045;
},
{
glyphname = F;
layers = (
{
layerId = "3DD6C797-E5ED-486C-89DE-75EDF9B2F8B8";
paths = (
{
closed = 1;
nodes = (
"448 652 LINE",
"478 601 LINE",
"-3 646 LINE",
"45 685 LINE",
"23 446 LINE",
"-5 495 LINE",
"465 450 LINE",
"426 412 LINE"
);
},
{
closed = 1;
nodes = (
"230 146 LINE",
"54 194 LINE",
"15 48 LINE",
"191 0 LINE"
);
},
{
closed = 1;
nodes = (
"197 86 LINE",
"197 482 LINE",
"46 482 LINE",
"46 86 LINE"
);
},
{
closed = 1;
nodes = (
"312 241 LINE",
"331 350 LINE",
"102 350 LINE",
"102 241 LINE"
);
}
);
width = 459;
}
);
unicode = 0046;
},
{
glyphname = G;
layers = (
{
anchors = (
{
name = bottom;
position = "{297, 0}";
},
{
name = top;
position = "{297, 700}";
}
);
layerId = "3DD6C797-E5ED-486C-89DE-75EDF9B2F8B8";
paths = (
{
closed = 1;
nodes = (
"476 570 LINE",
"53 686 LINE",
"107 716 LINE",
"44 484 LINE",
"25 537 LINE",
"437 424 LINE"
);
},
{
closed = 1;
nodes = (
"356 177 LINE",
"375 111 LINE",
"46 206 LINE",
"61 239 LINE",
"1 6 LINE",
"9 62 LINE",
"375 -38 LINE",
"296 -58 LINE"
);
},
{
closed = 1;
nodes = (
"228 168 LINE",
"228 490 LINE",
"77 490 LINE",
"77 168 LINE"
);
},
{
closed = 1;
nodes = (
"525 41 LINE",
"474 -14 LINE",
"411 218 LINE",
"486 187 LINE",
"267 127 LINE",
"306 -19 LINE"
);
},
{
closed = 1;
nodes = (
"525 -50 LINE",
"525 199 LINE",
"374 199 LINE",
"374 -50 LINE"
);
},
{
closed = 1;
nodes = (
"582 375 LINE",
"737 324 LINE",
"256 369 LINE",
"318 408 LINE",
"296 169 LINE",
"254 218 LINE",
"716 173 LINE",
"560 135 LINE"
);
}
);
width = 594;
}
);
unicode = 0047;
},
{
glyphname = H;
layers = (
{
layerId = "3DD6C797-E5ED-486C-89DE-75EDF9B2F8B8";
paths = (
{
closed = 1;
nodes = (
"445 86 LINE",
"445 526 LINE",
"294 526 LINE",
"294 86 LINE"
);
},
{
closed = 1;
nodes = (
"245 143 LINE",
"54 195 LINE",
"15 49 LINE",
"206 -3 LINE"
);
},
{
closed = 1;
nodes = (
"112 165 LINE",
"220 165 LINE",
"220 500 LINE",
"69 500 LINE",
"69 128 LINE"
);
},
{
closed = 1;
nodes = (
"478 147 LINE",
"302 195 LINE",
"263 49 LINE",
"439 1 LINE"
);
},
{
closed = 1;
nodes = (
"326 444 LINE",
"347 344 LINE",
"85 416 LINE",
"140 492 LINE",
"89 303 LINE",
"308 243 LINE",
"263 212 LINE"
);
},
{
closed = 1;
nodes = (
"251 613 LINE",
"307 558 LINE",
"25 635 LINE",
"76 666 LINE",
"13 434 LINE",
"-10 488 LINE",
"268 412 LINE",
"188 381 LINE"
);
}
);
width = 493;
}
);
unicode = 0048;
},
{
glyphname = Hbar;
layers = (
{
components = (
{
name = H;
}
);
layerId = "3DD6C797-E5ED-486C-89DE-75EDF9B2F8B8";
paths = (
{
closed = 1;
nodes = (
"511 484 LINE",
"550 372 LINE",
"163 480 LINE",
"204 600 LINE",
"141 368 LINE",
"137 436 LINE",
"515 332 LINE",
"447 252 LINE"
);
}
);
width = 500;
}
);
unicode = 0126;
},
{
glyphname = I;
layers = (
{
anchors = (
{
name = bottom;
position = "{123, 0}";
},
{
name = ogonek;
position = "{101, 52}";
},
{
name = top;
position = "{123, 700}";
},
{
name = topleft;
position = "{20, 700}";
}
);
layerId = "3DD6C797-E5ED-486C-89DE-75EDF9B2F8B8";
paths = (
{
closed = 1;
nodes = (
"197 85 LINE",
"197 582 LINE",
"46 582 LINE",
"46 85 LINE"
);
},
{
closed = 1;
nodes = (
"230 146 LINE",
"54 194 LINE",
"15 48 LINE",
"191 0 LINE"
);
},
{
closed = 1;
nodes = (
"230 146 LINE",
"54 194 LINE",
"15 48 LINE",
"191 0 LINE"
);
},
{
closed = 1;
nodes = (
"230 626 LINE",
"54 674 LINE",
"15 528 LINE",
"191 480 LINE"
);
}
);
width = 245;
}
);
unicode = 0049;
},
{
glyphname = J;
layers = (
{
layerId = "3DD6C797-E5ED-486C-89DE-75EDF9B2F8B8";
paths = (
{
closed = 1;
nodes = (
"340 -124 LINE",
"340 465 LINE",
"189 465 LINE",
"189 -161 LINE"
);
},
{
closed = 1;
nodes = (
"228 -15 LINE",
"9 45 LINE",
"84 76 LINE",
"21 -156 LINE",
"-30 -101 LINE",
"189 -161 LINE"
);
},
{
closed = 1;
nodes = (
"392 652 LINE",
"444 601 LINE",
"-37 646 LINE",
"33 685 LINE",
"11 446 LINE",
"-39 495 LINE",
"431 450 LINE",
"370 412 LINE"
);
}
);
width = 403;
}
);
unicode = 004A;
},
{
glyphname = K;
layers = (
{
anchors = (
{
name = bottom;
position = "{235, 0}";
},
{
name = top;
position = "{235, 700}";
}
);
layerId = "3DD6C797-E5ED-486C-89DE-75EDF9B2F8B8";
paths = (
{
closed = 1;
nodes = (
"197 85 LINE",
"197 582 LINE",
"46 582 LINE",
"46 85 LINE"
);
},
{
closed = 1;
nodes = (
"230 146 LINE",
"54 194 LINE",
"15 48 LINE",
"191 0 LINE"
);
},
{
closed = 1;
nodes = (
"455 147 LINE",
"279 195 LINE",
"240 49 LINE",
"416 1 LINE"
);
},
{
closed = 1;
nodes = (
"422 86 LINE",
"422 312 LINE",
"271 312 LINE",
"271 86 LINE"
);
},
{
closed = 1;
nodes = (
"440 344 LINE",
"473 282 LINE",
"171 459 LINE",
"225 445 LINE",
"106 236 LINE",
"106 323 LINE",
"398 151 LINE",
"321 135 LINE"
);
},
{
closed = 1;
nodes = (
"230 626 LINE",
"54 674 LINE",
"15 528 LINE",
"191 480 LINE"
);
},
{
closed = 1;
nodes = (
"224 322 LINE",
"448 413 LINE",
"422 254 LINE",
"422 611 LINE",
"271 550 LINE",
"271 254 LINE"
);
}
);
width = 470;
}
);
unicode = 004B;
},
{
glyphname = L;
layers = (
{
anchors = (
{
name = bottom;
position = "{214, 0}";
},
{
name = center;
position = "{214, 350}";
},
{
name = top;
position = "{154, 700}";
},
{
name = topright;
position = "{408, 700}";
}
);
layerId = "3DD6C797-E5ED-486C-89DE-75EDF9B2F8B8";
paths = (
{
closed = 1;
nodes = (
"417 186 LINE",
"466 135 LINE",
"-15 180 LINE",
"39 219 LINE",
"17 -20 LINE",
"-17 29 LINE",
"453 -16 LINE",
"395 -54 LINE"
);
},
{
closed = 1;
nodes = (
"185 178 LINE",
"185 520 LINE",
"34 520 LINE",
"34 161 LINE"
);
},
{
closed = 1;
nodes = (
"263 615 LINE",
"73 666 LINE",
"34 520 LINE",
"224 469 LINE"
);
}
);
width = 428;
}
);
unicode = 004C;
},
{
glyphname = Lslash;
layers = (
{
components = (
{
name = L;
transform = "{1, 0, 0, 1, 37, 0}";
}
);
layerId = "3DD6C797-E5ED-486C-89DE-75EDF9B2F8B8";
paths = (
{
closed = 1;
nodes = (
"-8 253 LINE",
"305 305 LINE",
"304 238 LINE",
"265 475 LINE",
"284 411 LINE",
"-36 358 LINE",
"-5 455 LINE",
"34 218 LINE"
);
}
);
width = 465;
}
);
unicode = 0141;
},
{
glyphname = M;
layers = (
{
layerId = "3DD6C797-E5ED-486C-89DE-75EDF9B2F8B8";
paths = (
{
closed = 1;
nodes = (
"217 86 LINE",
"217 585 LINE",
"66 585 LINE",
"66 86 LINE"
);
},
{
closed = 1;
nodes = (
"250 147 LINE",
"74 195 LINE",
"35 49 LINE",
"211 1 LINE"
);
},
{
closed = 1;
nodes = (
"475 147 LINE",
"256 207 LINE",
"332 238 LINE",
"269 6 LINE",
"217 61 LINE",
"436 1 LINE"
);
},
{
closed = 1;
nodes = (
"228 625 LINE",
"273 570 LINE",
"54 630 LINE",
"15 484 LINE",
"234 424 LINE",
"165 393 LINE"
);
},
{
closed = 1;
nodes = (
"442 86 LINE",
"442 526 LINE",
"291 526 LINE",
"291 86 LINE"
);
},
{
closed = 1;
nodes = (
"700 147 LINE",
"481 207 LINE",
"557 238 LINE",
"494 6 LINE",
"442 61 LINE",
"661 1 LINE"
);
},
{
closed = 1;
nodes = (
"487 613 LINE",
"508 558 LINE",
"42 686 LINE",
"269 716 LINE",
"200 463 LINE",
"14 537 LINE",
"469 412 LINE",
"424 381 LINE"
);
},
{
closed = 1;
nodes = (
"667 86 LINE",
"667 526 LINE",
"516 526 LINE",
"516 86 LINE"
);
},
{
closed = 1;
nodes = (
"712 613 LINE",
"733 558 LINE",
"267 686 LINE",
"494 716 LINE",
"425 463 LINE",
"239 537 LINE",
"694 412 LINE",
"649 381 LINE"
);
}
);
width = 715;
}
);
unicode = 004D;
},
{
glyphname = N;
layers = (
{
anchors = (
{
name = bottom;
position = "{245, 0}";
},
{
name = top;
position = "{245, 700}";
}
);
layerId = "3DD6C797-E5ED-486C-89DE-75EDF9B2F8B8";
paths = (
{
closed = 1;
nodes = (
"217 86 LINE",
"217 585 LINE",
"66 585 LINE",
"66 86 LINE"
);
},
{
closed = 1;
nodes = (
"250 147 LINE",
"74 195 LINE",
"35 49 LINE",
"211 1 LINE"
);
},
{
closed = 1;
nodes = (
"475 147 LINE",
"256 207 LINE",
"332 238 LINE",
"269 6 LINE",
"217 61 LINE",
"436 1 LINE"
);
},
{
closed = 1;
nodes = (
"228 625 LINE",
"273 570 LINE",
"54 630 LINE",
"15 484 LINE",
"234 424 LINE",
"165 393 LINE"
);
},
{
closed = 1;
nodes = (
"442 86 LINE",
"442 526 LINE",
"291 526 LINE",
"291 86 LINE"
);
},
{
closed = 1;
nodes = (
"487 613 LINE",
"508 558 LINE",
"42 686 LINE",
"269 716 LINE",
"200 463 LINE",
"14 537 LINE",
"469 412 LINE",
"424 381 LINE"
);
}
);
width = 490;
}
);
unicode = 004E;
},
{
glyphname = Eng;
layers = (
{
anchors = (
{
name = bottom;
position = "{245, 0}";
},
{
name = top;
position = "{245, 700}";
}
);
layerId = "3DD6C797-E5ED-486C-89DE-75EDF9B2F8B8";
paths = (
{
closed = 1;
nodes = (
"217 86 LINE",
"217 585 LINE",
"66 585 LINE",
"66 86 LINE"
);
},
{
closed = 1;
nodes = (
"250 147 LINE",
"74 195 LINE",
"35 49 LINE",
"211 1 LINE"
);
},
{
closed = 1;
nodes = (
"228 625 LINE",
"273 570 LINE",
"54 630 LINE",
"15 484 LINE",
"234 424 LINE",
"165 393 LINE"
);
},
{
closed = 1;
nodes = (
"487 613 LINE",
"508 558 LINE",
"42 686 LINE",
"269 716 LINE",
"200 463 LINE",
"14 537 LINE",
"469 412 LINE",
"424 381 LINE"
);
},
{
closed = 1;
nodes = (
"442 -76 LINE",
"412 -2 LINE",
"239 46 LINE",
"274 77 LINE",
"211 -155 LINE",
"200 -100 LINE",
"419 -160 LINE"
);
},
{
closed = 1;
nodes = (
"487 -75 LINE",
"442 -150 LINE",
"442 482 LINE",
"291 482 LINE",
"291 -75 LINE"
);
}
);
width = 490;
}
);
unicode = 014A;
},
{
glyphname = O;
layers = (
{
anchors = (
{
name = bottom;
position = "{221, 0}";
},
{
name = center;
position = "{221, 350}";
},
{
name = ogonek;
position = "{397, 10}";
},
{
name = top;
position = "{221, 700}";
},
{
name = topleft;
position = "{20, 700}";
},
{
name = topright;
position = "{421, 700}";
}
);
layerId = "3DD6C797-E5ED-486C-89DE-75EDF9B2F8B8";
paths = (
{
closed = 1;
nodes = (
"15 52 LINE",
"368 -44 LINE",
"406 102 LINE",
"199 159 LINE",
"199 492 LINE",
"48 492 LINE",
"48 180 LINE"
);
},
{
closed = 1;
nodes = (
"457 526 LINE",
"37 641 LINE",
"73 672 LINE",
"13 438 LINE",
"15 490 LINE",
"273 419 LINE",
"273 86 LINE",
"424 86 LINE",
"424 398 LINE"
);
}
);
width = 441;
}
);
unicode = 004F;
},
{
glyphname = Oslash;
layers = (
{
components = (
{
name = O;
transform = "{1, 0, 0, 1, 10, 0}";
}
);
layerId = "3DD6C797-E5ED-486C-89DE-75EDF9B2F8B8";
paths = (
{
closed = 1;
nodes = (
"261 392 LINE",
"484 617 LINE",
"496 547 LINE",
"325 716 LINE",
"405 691 LINE",
"177 460 LINE",
"145 557 LINE",
"315 387 LINE"
);
},
{
closed = 1;
nodes = (
"67 -126 LINE",
"290 99 LINE",
"302 29 LINE",
"131 198 LINE",
"211 173 LINE",
"-17 -58 LINE",
"-49 39 LINE",
"121 -131 LINE"
);
}
);
width = 482;
}
);
unicode = 00D8;
},
{
glyphname = P;
layers = (
{
layerId = "3DD6C797-E5ED-486C-89DE-75EDF9B2F8B8";
paths = (
{
closed = 1;
nodes = (
"197 85 LINE",
"197 582 LINE",
"46 582 LINE",
"46 85 LINE"
);
},
{
closed = 1;
nodes = (
"230 146 LINE",
"54 194 LINE",
"15 48 LINE",
"191 0 LINE"
);
},
{
closed = 1;
nodes = (
"144 210 LINE",
"294 168 LINE",
"445 284 LINE",
"183 356 LINE",
"224 387 LINE",
"161 155 LINE"
);
},
{
closed = 1;
nodes = (
"230 626 LINE",
"54 674 LINE",
"15 528 LINE",
"191 480 LINE"
);
},
{
closed = 1;
nodes = (
"445 256 LINE",
"445 509 LINE",
"294 509 LINE",
"294 168 LINE"
);
},
{
closed = 1;
nodes = (
"482 614 LINE",
"220 686 LINE",
"244 717 LINE",
"181 485 LINE",
"181 540 LINE",
"443 468 LINE"
);
}
);
width = 497;
}
);
unicode = 0050;
},
{
glyphname = Thorn;
layers = (
{
layerId = "3DD6C797-E5ED-486C-89DE-75EDF9B2F8B8";
paths = (
{
closed = 1;
nodes = (
"197 85 LINE",
"197 692 LINE",
"46 692 LINE",
"46 85 LINE"
);
},
{
closed = 1;
nodes = (
"230 146 LINE",
"54 194 LINE",
"15 48 LINE",
"191 0 LINE"
);
},
{
closed = 1;
nodes = (
"230 146 LINE",
"54 194 LINE",
"15 48 LINE",
"191 0 LINE"
);
},
{
closed = 1;
nodes = (
"144 210 LINE",
"294 168 LINE",
"445 284 LINE",
"183 356 LINE",
"224 387 LINE",
"161 155 LINE"
);
},
{
closed = 1;
nodes = (
"230 736 LINE",
"54 784 LINE",
"15 638 LINE",
"191 590 LINE"
);
},
{
closed = 1;
nodes = (
"445 256 LINE",
"445 449 LINE",
"294 449 LINE",
"294 168 LINE"
);
},
{
closed = 1;
nodes = (
"482 554 LINE",
"220 626 LINE",
"244 657 LINE",
"181 425 LINE",
"181 480 LINE",
"443 408 LINE"
);
}
);
width = 497;
}
);
unicode = 00DE;
},
{
glyphname = Q;
layers = (
{
components = (
{
name = O;
}
);
layerId = "3DD6C797-E5ED-486C-89DE-75EDF9B2F8B8";
paths = (
{
closed = 1;
nodes = (
"447 -3 LINE",
"271 45 LINE",
"232 -101 LINE",
"408 -149 LINE"
);
}
);
width = 462;
}
);
unicode = 0051;
},
{
glyphname = R;
layers = (
{
anchors = (
{
name = bottom;
position = "{242, 0}";
},
{
name = top;
position = "{242, 700}";
}
);
layerId = "3DD6C797-E5ED-486C-89DE-75EDF9B2F8B8";
paths = (
{
closed = 1;
nodes = (
"448 676 LINE",
"478 625 LINE",
"-3 670 LINE",
"45 709 LINE",
"23 470 LINE",
"-5 519 LINE",
"465 474 LINE",
"426 436 LINE"
);
},
{
closed = 1;
nodes = (
"230 146 LINE",
"54 194 LINE",
"15 48 LINE",
"191 0 LINE"
);
},
{
closed = 1;
nodes = (
"230 146 LINE",
"54 194 LINE",
"15 48 LINE",
"191 0 LINE"
);
},
{
closed = 1;
nodes = (
"197 85 LINE",
"197 506 LINE",
"46 506 LINE",
"46 85 LINE"
);
},
{
closed = 1;
nodes = (
"469 146 LINE",
"293 194 LINE",
"254 48 LINE",
"430 0 LINE"
);
},
{
closed = 1;
nodes = (
"430 235 LINE",
"279 235 LINE",
"279 41 LINE",
"430 0 LINE"
);
},
{
closed = 1;
nodes = (
"430 235 LINE",
"430 327 LINE",
"484 302 LINE",
"162 391 LINE",
"217 492 LINE",
"166 278 LINE",
"446 201 LINE",
"413 187 LINE"
);
},
{
closed = 1;
nodes = (
"430 374 LINE",
"430 486 LINE",
"279 486 LINE",
"279 277 LINE"
);
}
);
width = 484;
}
);
unicode = 0052;
},
{
glyphname = S;
layers = (
{
anchors = (
{
name = bottom;
position = "{250, 0}";
},
{
name = top;
position = "{250, 700}";
}
);
layerId = "3DD6C797-E5ED-486C-89DE-75EDF9B2F8B8";
paths = (
{
closed = 1;
nodes = (
"359 373 LINE",
"339 325 LINE",
"130 576 LINE",
"15 478 LINE",
"223 228 LINE",
"173 218 LINE"
);
},
{
closed = 1;
nodes = (
"450 116 LINE",
"143 200 LINE",
"70 63 LINE",
"310 -2 LINE"
);
},
{
closed = 1;
nodes = (
"484 144 LINE",
"484 260 LINE",
"324 449 LINE",
"365 459 LINE",
"182 303 LINE",
"209 351 LINE",
"425 95 LINE"
);
},
{
closed = 1;
nodes = (
"478 602 LINE",
"238 667 LINE",
"98 549 LINE",
"405 465 LINE"
);
}
);
width = 499;
}
);
unicode = 0053;
},
{
glyphname = T;
layers = (
{
anchors = (
{
name = bottom;
position = "{159, 28}";
},
{
name = center;
position = "{224, 350}";
},
{
name = top;
position = "{224, 700}";
}
);
layerId = "3DD6C797-E5ED-486C-89DE-75EDF9B2F8B8";
paths = (
{
closed = 1;
nodes = (
"436 652 LINE",
"466 601 LINE",
"-15 646 LINE",
"33 685 LINE",
"11 446 LINE",
"-17 495 LINE",
"453 450 LINE",
"414 412 LINE"
);
},
{
closed = 1;
nodes = (
"300 146 LINE",
"124 194 LINE",
"85 48 LINE",
"261 0 LINE"
);
},
{
closed = 1;
nodes = (
"300 146 LINE",
"124 194 LINE",
"85 48 LINE",
"261 0 LINE"
);
},
{
closed = 1;
nodes = (
"150 164 LINE",
"189 174 LINE",
"267 174 LINE",
"267 472 LINE",
"116 472 LINE",
"116 164 LINE"
);
}
);
width = 447;
}
);
unicode = 0054;
},
{
glyphname = Tbar;
layers = (
{
components = (
{
name = T;
}
);
layerId = "3DD6C797-E5ED-486C-89DE-75EDF9B2F8B8";
paths = (
{
closed = 1;
nodes = (
"358 455 LINE",
"389 298 LINE",
"69 351 LINE",
"98 475 LINE",
"59 238 LINE",
"48 305 LINE",
"361 253 LINE",
"319 218 LINE"
);
}
);
width = 447;
}
);
unicode = 0166;
},
{
glyphname = U;
layers = (
{
anchors = (
{
name = bottom;
position = "{245, 0}";
},
{
name = ogonek;
position = "{351, 52}";
},
{
name = top;
position = "{245, 700}";
},
{
name = topright;
position = "{470, 700}";
}
);
layerId = "3DD6C797-E5ED-486C-89DE-75EDF9B2F8B8";
paths = (
{
closed = 1;
nodes = (
"424 45 LINE",
"424 545 LINE",
"273 545 LINE",
"273 45 LINE"
);
},
{
closed = 1;
nodes = (
"290 167 LINE",
"476 93 LINE",
"21 218 LINE",
"66 249 LINE",
"3 17 LINE",
"-18 72 LINE",
"448 -56 LINE",
"221 -86 LINE"
);
},
{
closed = 1;
nodes = (
"199 104 LINE",
"199 545 LINE",
"48 545 LINE",
"48 104 LINE"
);
},
{
closed = 1;
nodes = (
"475 146 LINE",
"256 206 LINE",
"325 237 LINE",
"262 5 LINE",
"217 60 LINE",
"436 0 LINE"
);
},
{
closed = 1;
nodes = (
"221 625 LINE",
"273 570 LINE",
"54 630 LINE",
"15 484 LINE",
"234 424 LINE",
"158 393 LINE"
);
},
{
closed = 1;
nodes = (
"455 582 LINE",
"279 630 LINE",
"240 484 LINE",
"416 436 LINE"
);
}
);
width = 490;
}
);
unicode = 0055;
},
{
glyphname = V;
layers = (
{
layerId = "3DD6C797-E5ED-486C-89DE-75EDF9B2F8B8";
paths = (
{
closed = 1;
nodes = (
"398 92 LINE",
"50 257 LINE",
"115 268 LINE",
"24 73 LINE",
"-8 116 LINE",
"240 0 LINE"
);
},
{
closed = 1;
nodes = (
"197 95 LINE",
"197 582 LINE",
"46 582 LINE",
"46 95 LINE"
);
},
{
closed = 1;
nodes = (
"324 49 LINE",
"429 110 LINE",
"458 216 LINE",
"374 606 LINE",
"483 473 LINE",
"247 422 LINE",
"225 582 LINE",
"350 0 LINE"
);
},
{
closed = 1;
nodes = (
"230 626 LINE",
"54 674 LINE",
"15 528 LINE",
"191 480 LINE"
);
},
{
closed = 1;
nodes = (
"453 544 LINE",
"277 592 LINE",
"238 446 LINE",
"414 398 LINE"
);
},
{
closed = 1;
nodes = (
"370 76 LINE",
"355 67 LINE",
"278 233 LINE",
"383 234 LINE",
"182 117 LINE",
"182 186 LINE"
);
}
);
width = 473;
}
);
unicode = 0056;
},
{
glyphname = W;
layers = (
{
anchors = (
{
name = bottom;
position = "{332, 0}";
},
{
name = top;
position = "{332, 700}";
}
);
layerId = "3DD6C797-E5ED-486C-89DE-75EDF9B2F8B8";
paths = (
{
closed = 1;
nodes = (
"441 167 LINE",
"476 93 LINE",
"21 218 LINE",
"66 249 LINE",
"3 17 LINE",
"-18 72 LINE",
"448 -56 LINE",
"372 -86 LINE"
);
},
{
closed = 1;
nodes = (
"199 104 LINE",
"199 544 LINE",
"48 544 LINE",
"48 104 LINE"
);
},
{
closed = 1;
nodes = (
"665 167 LINE",
"701 93 LINE",
"246 218 LINE",
"291 249 LINE",
"228 17 LINE",
"207 72 LINE",
"673 -56 LINE",
"596 -86 LINE"
);
},
{
closed = 1;
nodes = (
"221 624 LINE",
"273 569 LINE",
"54 629 LINE",
"15 483 LINE",
"234 423 LINE",
"158 392 LINE"
);
},
{
closed = 1;
nodes = (
"424 104 LINE",
"424 544 LINE",
"273 544 LINE",
"273 104 LINE"
);
},
{
closed = 1;
nodes = (
"649 107 LINE",
"649 445 LINE",
"498 445 LINE",
"498 107 LINE"
);
},
{
closed = 1;
nodes = (
"446 624 LINE",
"498 569 LINE",
"279 629 LINE",
"240 483 LINE",
"459 423 LINE",
"383 392 LINE"
);
},
{
closed = 1;
nodes = (
"649 445 LINE",
"561 782 LINE",
"655 641 LINE",
"423 577 LINE",
"414 742 LINE",
"503 407 LINE"
);
}
);
width = 664;
}
);
unicode = 0057;
},
{
glyphname = X;
layers = (
{
layerId = "3DD6C797-E5ED-486C-89DE-75EDF9B2F8B8";
paths = (
{
closed = 1;
nodes = (
"400 -12 LINE",
"664 57 LINE",
"653 3 LINE",
"589 235 LINE",
"624 204 LINE",
"361 134 LINE",
"394 203 LINE",
"455 -29 LINE"
);
},
{
closed = 1;
nodes = (
"150 804 LINE",
"242 718 LINE",
"34 597 LINE",
"-8 774 LINE",
"470 -39 LINE",
"429 -11 LINE",
"617 106 LINE",
"662 -68 LINE"
);
},
{
closed = 1;
nodes = (
"34 496 LINE",
"297 566 LINE",
"264 497 LINE",
"203 729 LINE",
"258 712 LINE",
"-6 643 LINE",
"5 697 LINE",
"69 465 LINE"
);
},
{
closed = 1;
nodes = (
"261 203 LINE",
"294 134 LINE",
"31 204 LINE",
"66 235 LINE",
"2 3 LINE",
"-9 57 LINE",
"255 -12 LINE",
"200 -29 LINE"
);
},
{
closed = 1;
nodes = (
"38 106 LINE",
"226 -11 LINE",
"185 -39 LINE",
"663 774 LINE",
"621 597 LINE",
"413 718 LINE",
"505 804 LINE",
"-7 -68 LINE"
);
},
{
closed = 1;
nodes = (
"650 697 LINE",
"661 643 LINE",
"397 712 LINE",
"452 729 LINE",
"391 497 LINE",
"358 566 LINE",
"621 496 LINE",
"586 465 LINE"
);
}
);
width = 655;
}
);
unicode = 0058;
},
{
glyphname = Y;
layers = (
{
anchors = (
{
name = bottom;
position = "{235, -298}";
},
{
name = top;
position = "{235, 700}";
},
{
name = topleft;
position = "{20, 700}";
}
);
layerId = "3DD6C797-E5ED-486C-89DE-75EDF9B2F8B8";
paths = (
{
closed = 1;
nodes = (
"424 -97 LINE",
"424 511 LINE",
"273 511 LINE",
"273 -97 LINE"
);
},
{
closed = 1;
nodes = (
"433 -63 LINE",
"476 -110 LINE",
"48 1 LINE",
"124 34 LINE",
"64 -199 LINE",
"11 -143 LINE",
"485 -272 LINE",
"373 -298 LINE"
);
},
{
closed = 1;
nodes = (
"290 167 LINE",
"476 93 LINE",
"21 218 LINE",
"66 249 LINE",
"3 17 LINE",
"-18 72 LINE",
"448 -56 LINE",
"221 -86 LINE"
);
},
{
closed = 1;
nodes = (
"199 104 LINE",
"199 545 LINE",
"48 545 LINE",
"48 104 LINE"
);
},
{
closed = 1;
nodes = (
"221 625 LINE",
"273 570 LINE",
"54 630 LINE",
"15 484 LINE",
"234 424 LINE",
"158 393 LINE"
);
},
{
closed = 1;
nodes = (
"455 582 LINE",
"279 630 LINE",
"240 484 LINE",
"416 436 LINE"
);
}
);
width = 470;
}
);
unicode = 0059;
},
{
glyphname = Z;
layers = (
{
anchors = (
{
name = bottom;
position = "{252, 0}";
},
{
name = center;
position = "{252, 350}";
},
{
name = top;
position = "{252, 700}";
}
);
layerId = "3DD6C797-E5ED-486C-89DE-75EDF9B2F8B8";
paths = (
{
closed = 1;
nodes = (
"187 112 LINE",
"462 498 LINE",
"447 419 LINE",
"250 558 LINE",
"338 584 LINE",
"35 158 LINE",
"37 172 LINE",
"214 39 LINE"
);
},
{
closed = 1;
nodes = (
"460 192 LINE",
"492 142 LINE",
"10 170 LINE",
"44 211 LINE",
"31 -29 LINE",
"13 19 LINE",
"484 -10 LINE",
"447 -49 LINE"
);
},
{
closed = 1;
nodes = (
"498 173 LINE",
"560 118 LINE",
"341 178 LINE",
"302 32 LINE",
"521 -28 LINE",
"435 -59 LINE"
);
},
{
closed = 1;
nodes = (
"211 630 LINE",
"273 575 LINE",
"54 635 LINE",
"15 489 LINE",
"234 429 LINE",
"148 398 LINE"
);
},
{
closed = 1;
nodes = (
"460 659 LINE",
"492 609 LINE",
"10 638 LINE",
"56 678 LINE",
"43 439 LINE",
"13 487 LINE",
"484 458 LINE",
"447 419 LINE"
);
}
);
width = 503;
}
);
unicode = 005A;
},
{
glyphname = a;
layers = (
{
anchors = (
{
name = bottom;
position = "{224, 0}";
},
{
name = ogonek;
position = "{295, 52}";
},
{
name = top;
position = "{222, 590}";
}
);
layerId = "3DD6C797-E5ED-486C-89DE-75EDF9B2F8B8";
paths = (
{
closed = 1;
nodes = (
"426 143 LINE",
"374 157 LINE",
"374 290 LINE",
"394 285 LINE",
"432 432 LINE",
"135 510 LINE",
"98 364 LINE",
"223 331 LINE",
"223 150 LINE",
"196 49 LINE",
"387 -3 LINE"
);
},
{
closed = 1;
nodes = (
"245 143 LINE",
"177 162 LINE",
"177 392 LINE",
"26 392 LINE",
"26 90 LINE",
"15 49 LINE",
"206 -3 LINE"
);
}
);
width = 447;
}
);
unicode = 0061;
},
{
glyphname = ae;
layers = (
{
anchors = (
{
name = bottom;
position = "{224, 0}";
},
{
name = ogonek;
position = "{402, 10}";
},
{
name = top;
position = "{222, 540}";
}
);
layerId = "3DD6C797-E5ED-486C-89DE-75EDF9B2F8B8";
paths = (
{
closed = 1;
nodes = (
"575 365 LINE",
"389 523 LINE",
"292 407 LINE",
"478 249 LINE"
);
},
{
closed = 1;
nodes = (
"374 86 LINE",
"374 392 LINE",
"223 392 LINE",
"223 86 LINE"
);
},
{
closed = 1;
nodes = (
"275 132 LINE",
"494 192 LINE",
"443 381 LINE",
"498 305 LINE",
"236 233 LINE",
"257 333 LINE",
"320 101 LINE"
);
},
{
closed = 1;
nodes = (
"406 476 LINE",
"476 421 LINE",
"135 510 LINE",
"98 364 LINE",
"437 273 LINE",
"346 241 LINE"
);
},
{
closed = 1;
nodes = (
"245 143 LINE",
"54 195 LINE",
"15 49 LINE",
"206 -3 LINE"
);
},
{
closed = 1;
nodes = (
"177 86 LINE",
"177 392 LINE",
"26 392 LINE",
"26 86 LINE"
);
},
{
closed = 1;
nodes = (
"374 86 LINE",
"374 392 LINE",
"223 392 LINE",
"223 86 LINE"
);
},
{
closed = 1;
nodes = (
"535 118 LINE",
"245 197 LINE",
"206 51 LINE",
"496 -28 LINE"
);
}
);
width = 590;
}
);
unicode = 00E6;
},
{
glyphname = b;
layers = (
{
layerId = "3DD6C797-E5ED-486C-89DE-75EDF9B2F8B8";
paths = (
{
closed = 1;
nodes = (
"388 92 LINE",
"40 257 LINE",
"105 268 LINE",
"14 73 LINE",
"-18 116 LINE",
"230 0 LINE"
);
},
{
closed = 1;
nodes = (
"197 105 LINE",
"197 582 LINE",
"46 582 LINE",
"46 105 LINE"
);
},
{
closed = 1;
nodes = (
"314 49 LINE",
"419 110 LINE",
"448 216 LINE",
"389 489 LINE",
"457 371 LINE",
"221 320 LINE",
"237 480 LINE",
"340 0 LINE"
);
},
{
closed = 1;
nodes = (
"416 362 LINE",
"251 440 LINE",
"188 303 LINE",
"353 225 LINE"
);
},
{
closed = 1;
nodes = (
"230 626 LINE",
"54 674 LINE",
"15 528 LINE",
"191 480 LINE"
);
}
);
width = 463;
}
);
unicode = 0062;
},
{
glyphname = c;
layers = (
{
anchors = (
{
name = bottom;
position = "{167, 0}";
},
{
name = top;
position = "{197, 550}";
}
);
layerId = "3DD6C797-E5ED-486C-89DE-75EDF9B2F8B8";
paths = (
{
closed = 1;
nodes = (
"374 441 LINE",
"77 519 LINE",
"40 373 LINE",
"336 294 LINE"
);
},
{
closed = 1;
nodes = (
"288 186 LINE",
"288 131 LINE",
"54 195 LINE",
"15 49 LINE",
"249 -15 LINE",
"225 -46 LINE"
);
},
{
closed = 1;
nodes = (
"177 86 LINE",
"177 352 LINE",
"26 352 LINE",
"26 86 LINE"
);
},
{
closed = 1;
nodes = (
"445 109 LINE",
"399 38 LINE",
"277 247 LINE",
"369 240 LINE",
"158 119 LINE",
"234 -11 LINE"
);
}
);
width = 394;
}
);
unicode = 0063;
},
{
glyphname = d;
layers = (
{
anchors = (
{
name = bottom;
position = "{205, -70}";
},
{
name = center;
position = "{205, 250}";
},
{
name = top;
position = "{167, 700}";
},
{
name = topright;
position = "{390, 500}";
}
);
layerId = "3DD6C797-E5ED-486C-89DE-75EDF9B2F8B8";
paths = (
{
closed = 1;
nodes = (
"225 149 LINE",
"449 240 LINE",
"424 146 LINE",
"213 667 LINE",
"73 610 LINE",
"284 89 LINE"
);
},
{
closed = 1;
nodes = (
"290 133 LINE",
"53 195 LINE",
"15 50 LINE",
"252 -14 LINE"
);
},
{
closed = 1;
nodes = (
"176 86 LINE",
"176 392 LINE",
"25 392 LINE",
"25 86 LINE"
);
},
{
closed = 1;
nodes = (
"395 86 LINE",
"395 218 LINE",
"244 218 LINE",
"244 86 LINE"
);
}
);
width = 410;
}
);
unicode = 0064;
},
{
glyphname = dcroat;
layers = (
{
components = (
{
name = d;
}
);
layerId = "3DD6C797-E5ED-486C-89DE-75EDF9B2F8B8";
paths = (
{
closed = 1;
nodes = (
"41 432 LINE",
"347 516 LINE",
"322 449 LINE",
"259 681 LINE",
"315 619 LINE",
"2 533 LINE",
"23 633 LINE",
"86 401 LINE"
);
}
);
width = 410;
}
);
unicode = 0111;
},
{
glyphname = e;
layers = (
{
anchors = (
{
name = bottom;
position = "{200, 0}";
},
{
name = ogonek;
position = "{149, 52}";
},
{
name = top;
position = "{180, 580}";
}
);
layerId = "3DD6C797-E5ED-486C-89DE-75EDF9B2F8B8";
paths = (
{
closed = 1;
nodes = (
"384 365 LINE",
"198 523 LINE",
"101 407 LINE",
"287 249 LINE"
);
},
{
closed = 1;
nodes = (
"344 118 LINE",
"54 197 LINE",
"15 51 LINE",
"305 -28 LINE"
);
},
{
closed = 1;
nodes = (
"183 86 LINE",
"183 392 LINE",
"32 392 LINE",
"32 86 LINE"
);
},
{
closed = 1;
nodes = (
"84 132 LINE",
"303 192 LINE",
"252 381 LINE",
"307 305 LINE",
"45 233 LINE",
"66 333 LINE",
"129 101 LINE"
);
}
);
width = 399;
}
);
unicode = 0065;
},
{
glyphname = f;
layers = (
{
layerId = "3DD6C797-E5ED-486C-89DE-75EDF9B2F8B8";
paths = (
{
closed = 1;
nodes = (
"185 462 LINE",
"34 462 LINE",
"34 44 LINE",
"185 2 LINE"
);
},
{
closed = 1;
nodes = (
"240 241 LINE",
"259 350 LINE",
"90 350 LINE",
"90 241 LINE"
);
},
{
closed = 1;
nodes = (
"311 632 LINE",
"466 581 LINE",
"-15 626 LINE",
"33 665 LINE",
"11 426 LINE",
"-17 475 LINE",
"445 430 LINE",
"289 392 LINE"
);
}
);
width = 323;
}
);
unicode = 0066;
},
{
glyphname = g;
layers = (
{
anchors = (
{
name = bottom;
position = "{222, -260}";
},
{
name = top;
position = "{222, 580}";
}
);
layerId = "3DD6C797-E5ED-486C-89DE-75EDF9B2F8B8";
paths = (
{
closed = 1;
nodes = (
"432 432 LINE",
"135 510 LINE",
"98 364 LINE",
"394 285 LINE"
);
},
{
closed = 1;
nodes = (
"245 143 LINE",
"54 195 LINE",
"15 49 LINE",
"206 -3 LINE"
);
},
{
closed = 1;
nodes = (
"177 177 LINE",
"177 392 LINE",
"26 392 LINE",
"26 177 LINE"
);
},
{
closed = 1;
nodes = (
"386 -33 LINE",
"469 -103 LINE",
"84 3 LINE",
"107 41 LINE",
"44 -191 LINE",
"36 -141 LINE",
"430 -249 LINE",
"323 -265 LINE"
);
},
{
closed = 1;
nodes = (
"374 -77 LINE",
"374 392 LINE",
"223 392 LINE",
"223 -77 LINE"
);
}
);
width = 447;
}
);
unicode = 0067;
},
{
glyphname = h;
layers = (
{
layerId = "3DD6C797-E5ED-486C-89DE-75EDF9B2F8B8";
paths = (
{
closed = 1;
nodes = (
"220 86 LINE",
"220 640 LINE",
"69 579 LINE",
"69 86 LINE"
);
},
{
closed = 1;
nodes = (
"245 143 LINE",
"54 195 LINE",
"15 49 LINE",
"206 -3 LINE"
);
},
{
closed = 1;
nodes = (
"423 61 LINE",
"423 390 LINE",
"272 390 LINE",
"272 0 LINE"
);
},
{
closed = 1;
nodes = (
"448 481 LINE",
"474 436 LINE",
"240 500 LINE",
"201 354 LINE",
"435 290 LINE",
"385 249 LINE"
);
}
);
width = 446;
}
);
unicode = 0068;
},
{
glyphname = hbar;
layers = (
{
layerId = "3DD6C797-E5ED-486C-89DE-75EDF9B2F8B8";
paths = (
{
closed = 1;
nodes = (
"-6 491 LINE",
"307 543 LINE",
"306 476 LINE",
"267 713 LINE",
"286 649 LINE",
"-34 596 LINE",
"-3 693 LINE",
"36 456 LINE"
);
},
{
closed = 1;
nodes = (
"220 86 LINE",
"220 700 LINE",
"69 639 LINE",
"69 86 LINE"
);
},
{
closed = 1;
nodes = (
"245 143 LINE",
"54 195 LINE",
"15 49 LINE",
"206 -3 LINE"
);
},
{
closed = 1;
nodes = (
"423 61 LINE",
"423 390 LINE",
"272 390 LINE",
"272 0 LINE"
);
},
{
closed = 1;
nodes = (
"431 448 LINE",
"240 500 LINE",
"201 354 LINE",
"392 302 LINE"
);
}
);
width = 446;
}
);
unicode = 0127;
},
{
glyphname = idotless;
layers = (
{
anchors = (
{
name = bottom;
position = "{123, -50}";
},
{
name = ogonek;
position = "{101, 52}";
},
{
name = top;
position = "{117, 500}";
}
);
layerId = "3DD6C797-E5ED-486C-89DE-75EDF9B2F8B8";
paths = (
{
closed = 1;
nodes = (
"197 85 LINE",
"197 392 LINE",
"46 392 LINE",
"46 85 LINE"
);
},
{
closed = 1;
nodes = (
"230 146 LINE",
"54 194 LINE",
"15 48 LINE",
"191 0 LINE"
);
},
{
closed = 1;
nodes = (
"230 436 LINE",
"54 484 LINE",
"15 338 LINE",
"191 290 LINE"
);
}
);
width = 245;
}
);
unicode = 0131;
},
{
glyphname = jdotless;
layers = (
{
anchors = (
{
name = bottom;
position = "{123, -200}";
},
{
name = top;
position = "{117, 500}";
}
);
layerId = "3DD6C797-E5ED-486C-89DE-75EDF9B2F8B8";
paths = (
{
closed = 1;
nodes = (
"197 -124 LINE",
"197 373 LINE",
"46 373 LINE",
"46 -161 LINE"
);
},
{
closed = 1;
nodes = (
"230 436 LINE",
"54 484 LINE",
"15 338 LINE",
"191 290 LINE"
);
}
);
width = 245;
}
);
unicode = 0237;
},
{
glyphname = k;
layers = (
{
anchors = (
{
name = bottom;
position = "{208, 0}";
},
{
name = top;
position = "{208, 700}";
}
);
layerId = "3DD6C797-E5ED-486C-89DE-75EDF9B2F8B8";
paths = (
{
closed = 1;
nodes = (
"197 86 LINE",
"197 640 LINE",
"46 579 LINE",
"46 86 LINE"
);
},
{
closed = 1;
nodes = (
"230 146 LINE",
"54 194 LINE",
"15 48 LINE",
"191 0 LINE"
);
},
{
closed = 1;
nodes = (
"400 61 LINE",
"400 312 LINE",
"249 312 LINE",
"249 0 LINE"
);
},
{
closed = 1;
nodes = (
"418 344 LINE",
"451 282 LINE",
"149 459 LINE",
"203 445 LINE",
"84 236 LINE",
"84 323 LINE",
"376 151 LINE",
"299 135 LINE"
);
},
{
closed = 1;
nodes = (
"451 445 LINE",
"400 383 LINE",
"400 615 LINE",
"428 606 LINE",
"127 429 LINE",
"116 424 LINE",
"371 366 LINE",
"202 298 LINE"
);
}
);
width = 415;
}
);
unicode = 006B;
},
{
glyphname = l;
layers = (
{
anchors = (
{
name = bottom;
position = "{118, 0}";
},
{
name = center;
position = "{118, 400}";
},
{
name = top;
position = "{118, 700}";
},
{
name = topright;
position = "{215, 800}";
}
);
layerId = "3DD6C797-E5ED-486C-89DE-75EDF9B2F8B8";
paths = (
{
closed = 1;
nodes = (
"192 85 LINE",
"192 659 LINE",
"41 622 LINE",
"41 85 LINE"
);
},
{
closed = 1;
nodes = (
"225 146 LINE",
"49 194 LINE",
"10 48 LINE",
"186 0 LINE"
);
}
);
width = 235;
}
);
unicode = 006C;
},
{
glyphname = lslash;
layers = (
{
components = (
{
name = l;
transform = "{1, 0, 0, 1, 33, 0}";
}
);
layerId = "3DD6C797-E5ED-486C-89DE-75EDF9B2F8B8";
paths = (
{
closed = 1;
nodes = (
"-3 308 LINE",
"310 360 LINE",
"309 293 LINE",
"270 530 LINE",
"289 466 LINE",
"-31 413 LINE",
"0 510 LINE",
"39 273 LINE"
);
}
);
width = 313;
}
);
unicode = 0142;
},
{
glyphname = m;
layers = (
{
layerId = "3DD6C797-E5ED-486C-89DE-75EDF9B2F8B8";
paths = (
{
closed = 1;
nodes = (
"660 440 LINE",
"441 500 LINE",
"402 354 LINE",
"621 294 LINE"
);
},
{
closed = 1;
nodes = (
"230 146 LINE",
"54 194 LINE",
"15 48 LINE",
"191 0 LINE"
);
},
{
closed = 1;
nodes = (
"445 146 LINE",
"269 194 LINE",
"230 48 LINE",
"406 0 LINE"
);
},
{
closed = 1;
nodes = (
"412 85 LINE",
"412 396 LINE",
"261 396 LINE",
"261 85 LINE"
);
},
{
closed = 1;
nodes = (
"660 146 LINE",
"484 194 LINE",
"445 48 LINE",
"621 0 LINE"
);
},
{
closed = 1;
nodes = (
"445 440 LINE",
"226 500 LINE",
"187 354 LINE",
"406 294 LINE"
);
},
{
closed = 1;
nodes = (
"627 85 LINE",
"627 396 LINE",
"476 396 LINE",
"476 85 LINE"
);
},
{
closed = 1;
nodes = (
"197 85 LINE",
"197 392 LINE",
"46 392 LINE",
"46 85 LINE"
);
},
{
closed = 1;
nodes = (
"230 436 LINE",
"54 484 LINE",
"15 338 LINE",
"191 290 LINE"
);
}
);
width = 675;
}
);
unicode = 006D;
},
{
glyphname = n;
layers = (
{
anchors = (
{
name = bottom;
position = "{230, 0}";
},
{
name = top;
position = "{230, 550}";
}
);
layerId = "3DD6C797-E5ED-486C-89DE-75EDF9B2F8B8";
paths = (
{
closed = 1;
nodes = (
"445 440 LINE",
"226 500 LINE",
"187 354 LINE",
"406 294 LINE"
);
},
{
closed = 1;
nodes = (
"230 146 LINE",
"54 194 LINE",
"15 48 LINE",
"191 0 LINE"
);
},
{
closed = 1;
nodes = (
"197 85 LINE",
"197 396 LINE",
"46 396 LINE",
"46 85 LINE"
);
},
{
closed = 1;
nodes = (
"445 146 LINE",
"269 194 LINE",
"230 48 LINE",
"406 0 LINE"
);
},
{
closed = 1;
nodes = (
"230 436 LINE",
"54 484 LINE",
"15 338 LINE",
"191 290 LINE"
);
},
{
closed = 1;
nodes = (
"412 85 LINE",
"412 396 LINE",
"261 396 LINE",
"261 85 LINE"
);
}
);
width = 460;
}
);
unicode = 006E;
},
{
glyphname = eng;
layers = (
{
anchors = (
{
name = bottom;
position = "{230, 0}";
},
{
name = top;
position = "{230, 550}";
}
);
layerId = "3DD6C797-E5ED-486C-89DE-75EDF9B2F8B8";
paths = (
{
closed = 1;
nodes = (
"445 440 LINE",
"226 500 LINE",
"187 354 LINE",
"406 294 LINE"
);
},
{
closed = 1;
nodes = (
"230 146 LINE",
"54 194 LINE",
"15 48 LINE",
"191 0 LINE"
);
},
{
closed = 1;
nodes = (
"197 85 LINE",
"197 396 LINE",
"46 396 LINE",
"46 85 LINE"
);
},
{
closed = 1;
nodes = (
"412 -76 LINE",
"382 -2 LINE",
"209 46 LINE",
"244 77 LINE",
"181 -155 LINE",
"170 -100 LINE",
"389 -160 LINE"
);
},
{
closed = 1;
nodes = (
"230 436 LINE",
"54 484 LINE",
"15 338 LINE",
"191 290 LINE"
);
},
{
closed = 1;
nodes = (
"457 -75 LINE",
"412 -150 LINE",
"412 396 LINE",
"261 396 LINE",
"261 -75 LINE"
);
}
);
width = 460;
}
);
unicode = 014B;
},
{
glyphname = o;
layers = (
{
anchors = (
{
name = bottom;
position = "{212, 0}";
},
{
name = center;
position = "{212, 250}";
},
{
name = ogonek;
position = "{381, 10}";
},
{
name = top;
position = "{242, 580}";
},
{
name = topright;
position = "{403, 500}";
}
);
layerId = "3DD6C797-E5ED-486C-89DE-75EDF9B2F8B8";
paths = (
{
closed = 1;
nodes = (
"417 477 LINE",
"488 422 LINE",
"22 550 LINE",
"122 580 LINE",
"59 348 LINE",
"-6 401 LINE",
"449 276 LINE",
"354 245 LINE"
);
},
{
closed = 1;
nodes = (
"385 86 LINE",
"385 360 LINE",
"234 360 LINE",
"234 86 LINE"
);
},
{
closed = 1;
nodes = (
"275 -22 LINE",
"242 -48 LINE",
"305 184 LINE",
"305 126 LINE",
"176 162 LINE",
"176 392 LINE",
"25 392 LINE",
"25 90 LINE",
"14 49 LINE"
);
}
);
width = 423;
}
);
unicode = 006F;
},
{
glyphname = oslash;
layers = (
{
components = (
{
name = o;
transform = "{1, 0, 0, 1, 1, 0}";
}
);
layerId = "3DD6C797-E5ED-486C-89DE-75EDF9B2F8B8";
paths = (
{
closed = 1;
nodes = (
"215 310 LINE",
"438 535 LINE",
"450 465 LINE",
"279 634 LINE",
"359 609 LINE",
"131 378 LINE",
"99 475 LINE",
"269 305 LINE"
);
},
{
closed = 1;
nodes = (
"68 -110 LINE",
"291 115 LINE",
"303 45 LINE",
"132 214 LINE",
"212 189 LINE",
"-16 -42 LINE",
"-48 55 LINE",
"122 -115 LINE"
);
}
);
width = 424;
}
);
unicode = 00F8;
},
{
glyphname = p;
layers = (
{
layerId = "3DD6C797-E5ED-486C-89DE-75EDF9B2F8B8";
paths = (
{
closed = 1;
nodes = (
"197 -158 LINE",
"197 360 LINE",
"46 360 LINE",
"46 -195 LINE"
);
},
{
closed = 1;
nodes = (
"107 62 LINE",
"257 20 LINE",
"408 136 LINE",
"146 208 LINE",
"221 239 LINE",
"158 7 LINE"
);
},
{
closed = 1;
nodes = (
"408 108 LINE",
"408 361 LINE",
"257 361 LINE",
"257 20 LINE"
);
},
{
closed = 1;
nodes = (
"230 452 LINE",
"54 500 LINE",
"15 354 LINE",
"191 306 LINE"
);
},
{
closed = 1;
nodes = (
"445 440 LINE",
"226 500 LINE",
"187 354 LINE",
"406 294 LINE"
);
}
);
width = 460;
}
);
unicode = 0070;
},
{
glyphname = thorn;
layers = (
{
layerId = "3DD6C797-E5ED-486C-89DE-75EDF9B2F8B8";
paths = (
{
closed = 1;
nodes = (
"197 -158 LINE",
"197 550 LINE",
"46 550 LINE",
"46 -195 LINE"
);
},
{
closed = 1;
nodes = (
"107 62 LINE",
"257 20 LINE",
"408 136 LINE",
"146 208 LINE",
"221 239 LINE",
"158 7 LINE"
);
},
{
closed = 1;
nodes = (
"408 108 LINE",
"408 361 LINE",
"257 361 LINE",
"257 20 LINE"
);
},
{
closed = 1;
nodes = (
"230 642 LINE",
"54 690 LINE",
"15 544 LINE",
"191 496 LINE"
);
},
{
closed = 1;
nodes = (
"445 440 LINE",
"226 500 LINE",
"187 354 LINE",
"406 294 LINE"
);
}
);
width = 460;
}
);
unicode = 00FE;
},
{
glyphname = q;
layers = (
{
layerId = "3DD6C797-E5ED-486C-89DE-75EDF9B2F8B8";
paths = (
{
closed = 1;
nodes = (
"374 -158 LINE",
"374 360 LINE",
"223 360 LINE",
"223 -195 LINE"
);
},
{
closed = 1;
nodes = (
"248 177 LINE",
"334 122 LINE",
"53 195 LINE",
"15 50 LINE",
"295 -26 LINE",
"188 -58 LINE"
);
},
{
closed = 1;
nodes = (
"176 86 LINE",
"176 392 LINE",
"25 392 LINE",
"25 86 LINE"
);
},
{
closed = 1;
nodes = (
"406 477 LINE",
"488 422 LINE",
"22 550 LINE",
"122 580 LINE",
"59 348 LINE",
"-6 401 LINE",
"449 276 LINE",
"343 245 LINE"
);
}
);
width = 423;
}
);
unicode = 0071;
},
{
glyphname = r;
layers = (
{
anchors = (
{
name = bottom;
position = "{171, 0}";
},
{
name = top;
position = "{171, 550}";
}
);
layerId = "3DD6C797-E5ED-486C-89DE-75EDF9B2F8B8";
paths = (
{
closed = 1;
nodes = (
"197 85 LINE",
"197 392 LINE",
"46 392 LINE",
"46 85 LINE"
);
},
{
closed = 1;
nodes = (
"230 146 LINE",
"54 194 LINE",
"15 48 LINE",
"191 0 LINE"
);
},
{
closed = 1;
nodes = (
"221 479 LINE",
"273 424 LINE",
"54 484 LINE",
"15 338 LINE",
"234 278 LINE",
"158 247 LINE"
);
},
{
closed = 1;
nodes = (
"340 479 LINE",
"431 424 LINE",
"212 484 LINE",
"173 338 LINE",
"392 278 LINE",
"277 247 LINE"
);
}
);
width = 342;
}
);
unicode = 0072;
},
{
glyphname = s;
layers = (
{
anchors = (
{
name = bottom;
position = "{197, 0}";
},
{
name = top;
position = "{157, 550}";
}
);
layerId = "3DD6C797-E5ED-486C-89DE-75EDF9B2F8B8";
paths = (
{
closed = 1;
nodes = (
"234 278 LINE",
"100 471 LINE",
"234 535 LINE",
"-37 307 LINE",
"-24 383 LINE",
"110 191 LINE"
);
},
{
closed = 1;
nodes = (
"315 116 LINE",
"52 188 LINE",
"120 229 LINE",
"5 12 LINE",
"-21 51 LINE",
"176 -2 LINE"
);
},
{
closed = 1;
nodes = (
"269 78 LINE",
"380 170 LINE",
"350 99 LINE",
"364 259 LINE",
"299 352 LINE",
"176 265 LINE",
"317 63 LINE"
);
},
{
closed = 1;
nodes = (
"388 494 LINE",
"191 547 LINE",
"268 564 LINE",
"60 388 LINE",
"51 429 LINE",
"315 357 LINE"
);
}
);
width = 393;
}
);
unicode = 0073;
},
{
glyphname = germandbls;
layers = (
{
layerId = "3DD6C797-E5ED-486C-89DE-75EDF9B2F8B8";
paths = (
{
closed = 1;
nodes = (
"198 -49 LINE",
"412 76 LINE",
"412 95 LINE",
"-31 217 LINE",
"253 202 LINE",
"190 -30 LINE",
"-59 68 LINE",
"396 -57 LINE"
);
},
{
closed = 1;
nodes = (
"187 100 LINE",
"187 490 LINE",
"36 490 LINE",
"36 0 LINE"
);
},
{
closed = 1;
nodes = (
"412 76 LINE",
"412 331 LINE",
"261 331 LINE",
"261 76 LINE"
);
},
{
closed = 1;
nodes = (
"412 331 LINE",
"158 401 LINE",
"231 477 LINE",
"159 211 LINE",
"113 256 LINE",
"373 185 LINE"
);
},
{
closed = 1;
nodes = (
"422 613 LINE",
"478 558 LINE",
"12 686 LINE",
"66 716 LINE",
"3 484 LINE",
"-16 537 LINE",
"439 412 LINE",
"359 381 LINE"
);
},
{
closed = 1;
nodes = (
"412 375 LINE",
"412 576 LINE",
"261 576 LINE",
"261 333 LINE"
);
}
);
width = 427;
}
);
unicode = 00DF;
},
{
glyphname = t;
layers = (
{
anchors = (
{
name = bottom;
position = "{138, 0}";
},
{
name = center;
position = "{138, 250}";
},
{
name = top;
position = "{118, 690}";
},
{
name = topright;
position = "{256, 500}";
}
);
layerId = "3DD6C797-E5ED-486C-89DE-75EDF9B2F8B8";
paths = (
{
closed = 1;
nodes = (
"95 164 LINE",
"134 174 LINE",
"212 174 LINE",
"212 634 LINE",
"61 634 LINE",
"61 164 LINE"
);
},
{
closed = 1;
nodes = (
"245 146 LINE",
"69 194 LINE",
"30 48 LINE",
"206 0 LINE"
);
},
{
closed = 1;
nodes = (
"245 146 LINE",
"69 194 LINE",
"30 48 LINE",
"206 0 LINE"
);
},
{
closed = 1;
nodes = (
"265 602 LINE",
"466 536 LINE",
"-15 581 LINE",
"33 620 LINE",
"11 381 LINE",
"-17 430 LINE",
"453 385 LINE",
"243 362 LINE"
);
}
);
width = 276;
}
);
unicode = 0074;
},
{
glyphname = tbar;
layers = (
{
components = (
{
name = t;
}
);
layerId = "3DD6C797-E5ED-486C-89DE-75EDF9B2F8B8";
paths = (
{
closed = 1;
nodes = (
"291 466 LINE",
"322 309 LINE",
"2 362 LINE",
"31 486 LINE",
"-8 249 LINE",
"-19 316 LINE",
"294 264 LINE",
"252 229 LINE"
);
}
);
width = 276;
}
);
unicode = 0167;
},
{
glyphname = u;
layers = (
{
anchors = (
{
name = bottom;
position = "{230, 0}";
},
{
name = ogonek;
position = "{334, 52}";
},
{
name = top;
position = "{230, 550}";
},
{
name = topright;
position = "{440, 550}";
}
);
layerId = "3DD6C797-E5ED-486C-89DE-75EDF9B2F8B8";
paths = (
{
closed = 1;
nodes = (
"273 134 LINE",
"54 194 LINE",
"15 48 LINE",
"234 -12 LINE"
);
},
{
closed = 1;
nodes = (
"199 92 LINE",
"199 415 LINE",
"48 415 LINE",
"48 92 LINE"
);
},
{
closed = 1;
nodes = (
"445 146 LINE",
"269 194 LINE",
"230 48 LINE",
"406 0 LINE"
);
},
{
closed = 1;
nodes = (
"230 452 LINE",
"54 500 LINE",
"15 354 LINE",
"191 306 LINE"
);
},
{
closed = 1;
nodes = (
"414 92 LINE",
"414 415 LINE",
"263 415 LINE",
"263 92 LINE"
);
},
{
closed = 1;
nodes = (
"445 452 LINE",
"269 500 LINE",
"230 354 LINE",
"406 306 LINE"
);
}
);
width = 460;
}
);
unicode = 0075;
},
{
glyphname = v;
layers = (
{
layerId = "3DD6C797-E5ED-486C-89DE-75EDF9B2F8B8";
paths = (
{
closed = 1;
nodes = (
"390 92 LINE",
"42 257 LINE",
"107 268 LINE",
"16 73 LINE",
"-16 116 LINE",
"232 0 LINE"
);
},
{
closed = 1;
nodes = (
"199 92 LINE",
"199 415 LINE",
"48 415 LINE",
"48 92 LINE"
);
},
{
closed = 1;
nodes = (
"230 452 LINE",
"54 500 LINE",
"15 354 LINE",
"191 306 LINE"
);
},
{
closed = 1;
nodes = (
"316 49 LINE",
"421 110 LINE",
"450 216 LINE",
"391 489 LINE",
"475 381 LINE",
"239 330 LINE",
"239 480 LINE",
"342 0 LINE"
);
},
{
closed = 1;
nodes = (
"445 452 LINE",
"269 500 LINE",
"230 354 LINE",
"406 306 LINE"
);
}
);
width = 465;
}
);
unicode = 0076;
},
{
glyphname = w;
layers = (
{
anchors = (
{
name = bottom;
position = "{322, 0}";
},
{
name = top;
position = "{322, 550}";
}
);
layerId = "3DD6C797-E5ED-486C-89DE-75EDF9B2F8B8";
paths = (
{
closed = 1;
nodes = (
"640 146 LINE",
"688 91 LINE",
"269 206 LINE",
"230 60 LINE",
"649 -55 LINE",
"577 -86 LINE"
);
},
{
closed = 1;
nodes = (
"414 107 LINE",
"54 206 LINE",
"15 60 LINE",
"375 -39 LINE"
);
},
{
closed = 1;
nodes = (
"199 104 LINE",
"199 411 LINE",
"48 411 LINE",
"48 104 LINE"
);
},
{
closed = 1;
nodes = (
"232 491 LINE",
"273 436 LINE",
"54 496 LINE",
"15 350 LINE",
"234 290 LINE",
"169 259 LINE"
);
},
{
closed = 1;
nodes = (
"414 104 LINE",
"414 411 LINE",
"263 411 LINE",
"263 104 LINE"
);
},
{
closed = 1;
nodes = (
"447 491 LINE",
"488 436 LINE",
"269 496 LINE",
"230 350 LINE",
"449 290 LINE",
"384 259 LINE"
);
},
{
closed = 1;
nodes = (
"629 107 LINE",
"629 299 LINE",
"478 299 LINE",
"478 107 LINE"
);
},
{
closed = 1;
nodes = (
"629 299 LINE",
"571 642 LINE",
"652 486 LINE",
"416 442 LINE",
"421 615 LINE",
"481 274 LINE"
);
}
);
width = 644;
}
);
unicode = 0077;
},
{
glyphname = x;
layers = (
{
layerId = "3DD6C797-E5ED-486C-89DE-75EDF9B2F8B8";
paths = (
{
closed = 1;
nodes = (
"516 107 LINE",
"516 98 LINE",
"151 512 LINE",
"185 520 LINE",
"4 361 LINE",
"21 430 LINE",
"415 -16 LINE",
"354 -44 LINE"
);
},
{
closed = 1;
nodes = (
"578 82 LINE",
"566 22 LINE",
"463 241 LINE",
"513 219 LINE",
"266 105 LINE",
"309 200 LINE",
"409 -18 LINE",
"330 -32 LINE"
);
},
{
closed = 1;
nodes = (
"50 281 LINE",
"297 395 LINE",
"254 300 LINE",
"154 518 LINE",
"233 532 LINE",
"-15 418 LINE",
"-3 478 LINE",
"100 259 LINE"
);
},
{
closed = 1;
nodes = (
"145 -16 LINE",
"539 430 LINE",
"556 361 LINE",
"375 520 LINE",
"409 512 LINE",
"44 98 LINE",
"44 107 LINE",
"206 -44 LINE"
);
},
{
closed = 1;
nodes = (
"151 -18 LINE",
"251 200 LINE",
"294 105 LINE",
"47 219 LINE",
"97 241 LINE",
"-6 22 LINE",
"-18 82 LINE",
"230 -32 LINE"
);
},
{
closed = 1;
nodes = (
"563 478 LINE",
"575 418 LINE",
"327 532 LINE",
"406 518 LINE",
"306 300 LINE",
"263 395 LINE",
"510 281 LINE",
"460 259 LINE"
);
}
);
width = 560;
}
);
unicode = 0078;
},
{
glyphname = y;
layers = (
{
anchors = (
{
name = bottom;
position = "{230, -288}";
},
{
name = top;
position = "{230, 550}";
}
);
layerId = "3DD6C797-E5ED-486C-89DE-75EDF9B2F8B8";
paths = (
{
closed = 1;
nodes = (
"423 -53 LINE",
"466 -100 LINE",
"38 11 LINE",
"114 44 LINE",
"54 -189 LINE",
"1 -133 LINE",
"475 -262 LINE",
"363 -288 LINE"
);
},
{
closed = 1;
nodes = (
"281 177 LINE",
"355 122 LINE",
"-97 239 LINE",
"62 239 LINE",
"2 6 LINE",
"-116 91 LINE",
"316 -26 LINE",
"221 -58 LINE"
);
},
{
closed = 1;
nodes = (
"199 92 LINE",
"199 415 LINE",
"48 415 LINE",
"48 92 LINE"
);
},
{
closed = 1;
nodes = (
"414 -87 LINE",
"414 360 LINE",
"263 360 LINE",
"263 -87 LINE"
);
},
{
closed = 1;
nodes = (
"230 452 LINE",
"54 500 LINE",
"15 354 LINE",
"191 306 LINE"
);
},
{
closed = 1;
nodes = (
"445 452 LINE",
"269 500 LINE",
"230 354 LINE",
"406 306 LINE"
);
}
);
width = 460;
}
);
unicode = 0079;
},
{
glyphname = z;
layers = (
{
anchors = (
{
name = bottom;
position = "{237, 0}";
},
{
name = center;
position = "{237, 250}";
},
{
name = top;
position = "{237, 550}";
}
);
layerId = "3DD6C797-E5ED-486C-89DE-75EDF9B2F8B8";
paths = (
{
closed = 1;
nodes = (
"191 96 LINE",
"511 446 LINE",
"434 254 LINE",
"255 415 LINE",
"398 546 LINE",
"46 161 LINE",
"49 174 LINE",
"209 21 LINE"
);
},
{
closed = 1;
nodes = (
"427 147 LINE",
"54 169 LINE",
"46 18 LINE",
"419 -4 LINE"
);
},
{
closed = 1;
nodes = (
"468 177 LINE",
"530 122 LINE",
"311 182 LINE",
"272 36 LINE",
"491 -24 LINE",
"405 -55 LINE"
);
},
{
closed = 1;
nodes = (
"211 495 LINE",
"273 440 LINE",
"54 500 LINE",
"15 354 LINE",
"234 294 LINE",
"148 263 LINE"
);
},
{
closed = 1;
nodes = (
"427 478 LINE",
"54 500 LINE",
"46 349 LINE",
"419 327 LINE"
);
}
);
width = 473;
}
);
unicode = 007A;
},
{
glyphname = "hamza-ar";
layers = (
{
anchors = (
{
name = bottom;
position = "{224, -50}";
},
{
name = top;
position = "{224, 500}";
}
);
layerId = "3DD6C797-E5ED-486C-89DE-75EDF9B2F8B8";
paths = (
{
closed = 1;
nodes = (
"-135 0 LINE",
"480 0 LINE",
"441 -51 LINE",
"400 187 LINE",
"463 151 LINE",
"-152 151 LINE",
"10 196 LINE",
"51 -43 LINE"
);
},
{
closed = 1;
nodes = (
"306 56 LINE",
"384 185 LINE",
"130 333 LINE",
"324 279 LINE",
"398 416 LINE",
"177 477 LINE",
"15 226 LINE"
);
}
);
width = 447;
}
);
unicode = 0621;
},
{
glyphname = "alef-ar";
layers = (
{
anchors = (
{
name = bottom;
position = "{112, -40}";
},
{
name = top;
position = "{56, 669}";
}
);
layerId = "3DD6C797-E5ED-486C-89DE-75EDF9B2F8B8";
paths = (
{
closed = 1;
nodes = (
"179 39 LINE",
"179 620 LINE",
"28 620 LINE",
"28 -3 LINE"
);
},
{
closed = 1;
nodes = (
"204 528 LINE",
"165 674 LINE",
"-11 626 LINE",
"28 480 LINE"
);
}
);
width = 219;
}
);
unicode = 0627;
},
{
glyphname = "alef-ar.fina";
layers = (
{
anchors = (
{
name = bottom;
position = "{120, -40}";
},
{
name = top;
position = "{78, 615}";
}
);
layerId = "3DD6C797-E5ED-486C-89DE-75EDF9B2F8B8";
paths = (
{
closed = 1;
nodes = (
"187 86 LINE",
"187 620 LINE",
"36 579 LINE",
"36 86 LINE"
);
},
{
closed = 1;
nodes = (
"-20 -15 LINE",
"214 49 LINE",
"175 195 LINE",
"-59 131 LINE",
"-2 194 LINE",
"61 -38 LINE"
);
}
);
width = 187;
}
);
unicode = FE8E;
},
{
glyphname = "alef-ar.short";
layers = (
{
anchors = (
{
name = bottom;
position = "{112, -50}";
},
{
name = top;
position = "{59, 584}";
}
);
layerId = "3DD6C797-E5ED-486C-89DE-75EDF9B2F8B8";
paths = (
{
closed = 1;
nodes = (
"179 39 LINE",
"179 535 LINE",
"28 535 LINE",
"28 -3 LINE"
);
},
{
closed = 1;
nodes = (
"204 443 LINE",
"165 589 LINE",
"-11 541 LINE",
"28 395 LINE"
);
}
);
width = 224;
}
);
},
{
glyphname = "alef-ar.fina.short";
layers = (
{
anchors = (
{
name = bottom;
position = "{120, -50}";
},
{
name = top;
position = "{95, 583}";
}
);
layerId = "3DD6C797-E5ED-486C-89DE-75EDF9B2F8B8";
paths = (
{
closed = 1;
nodes = (
"187 86 LINE",
"187 595 LINE",
"36 554 LINE",
"36 86 LINE"
);
},
{
closed = 1;
nodes = (
"-20 -15 LINE",
"214 49 LINE",
"175 195 LINE",
"-59 131 LINE",
"-2 194 LINE",
"61 -38 LINE"
);
}
);
width = 187;
}
);
},
{
glyphname = "behDotless-ar";
layers = (
{
anchors = (
{
name = bottom;
position = "{568, -13}";
},
{
name = ring;
position = "{565, 0}";
},
{
name = top;
position = "{208, 283}";
}
);
layerId = "3DD6C797-E5ED-486C-89DE-75EDF9B2F8B8";
paths = (
{
closed = 1;
nodes = (
"152 -3 LINE",
"701 49 LINE",
"657 -6 LINE",
"635 234 LINE",
"669 197 LINE",
"139 148 LINE",
"169 199 LINE",
"191 -41 LINE"
);
},
{
closed = 1;
nodes = (
"240 206 LINE",
"334 119 LINE",
"53 192 LINE",
"15 47 LINE",
"295 -29 LINE",
"180 -29 LINE"
);
},
{
closed = 1;
nodes = (
"648 86 LINE",
"648 392 LINE",
"497 351 LINE",
"497 86 LINE"
);
}
);
width = 667;
}
);
unicode = 066E;
},
{
glyphname = "behDotless-ar.medi";
layers = (
{
anchors = (
{
name = bottom;
position = "{115, -13}";
},
{
name = ring;
position = "{114, 0}";
},
{
name = top;
position = "{110, 404}";
}
);
layerId = "3DD6C797-E5ED-486C-89DE-75EDF9B2F8B8";
paths = (
{
closed = 1;
nodes = (
"-10 -15 LINE",
"224 49 LINE",
"185 195 LINE",
"-49 131 LINE",
"-34 186 LINE",
"29 -46 LINE"
);
},
{
closed = 1;
nodes = (
"197 86 LINE",
"197 392 LINE",
"46 351 LINE",
"46 86 LINE"
);
}
);
width = 197;
}
);
},
{
glyphname = "behDotless-ar.init";
layers = (
{
anchors = (
{
name = bottom;
position = "{121, -13}";
},
{
name = ring;
position = "{115, 0}";
},
{
name = top;
position = "{111, 404}";
}
);
layerId = "3DD6C797-E5ED-486C-89DE-75EDF9B2F8B8";
paths = (
{
closed = 1;
nodes = (
"198 82 LINE",
"198 392 LINE",
"47 351 LINE",
"47 82 LINE"
);
},
{
closed = 1;
nodes = (
"209 45 LINE",
"170 191 LINE",
"-21 139 LINE",
"18 -7 LINE"
);
}
);
width = 224;
}
);
},
{
glyphname = "hah-ar";
layers = (
{
anchors = (
{
name = bottom;
position = "{304, -234}";
},
{
name = center;
position = "{426, -56}";
},
{
name = top;
position = "{441, 386}";
}
);
layerId = "3DD6C797-E5ED-486C-89DE-75EDF9B2F8B8";
paths = (
{
closed = 1;
nodes = (
"-35 -4 LINE",
"578 54 LINE",
"568 5 LINE",
"505 239 LINE",
"546 202 LINE",
"-66 145 LINE",
"4 195 LINE",
"67 -39 LINE"
);
},
{
closed = 1;
nodes = (
"106 -175 LINE",
"306 -38 LINE",
"345 -147 LINE",
"178 91 LINE",
"55 5 LINE",
"220 -234 LINE"
);
},
{
closed = 1;
nodes = (
"533 385 LINE",
"545 334 LINE",
"64 379 LINE",
"112 418 LINE",
"90 179 LINE",
"62 228 LINE",
"532 183 LINE",
"511 145 LINE"
);
}
);
width = 570;
}
);
unicode = 062D;
},
{
glyphname = "hah-ar.init";
layers = (
{
anchors = (
{
name = bottom;
position = "{383, 0}";
},
{
name = top;
position = "{392, 386}";
}
);
layerId = "3DD6C797-E5ED-486C-89DE-75EDF9B2F8B8";
paths = (
{
closed = 1;
nodes = (
"-62 -8 LINE",
"551 50 LINE",
"526 1 LINE",
"463 235 LINE",
"519 198 LINE",
"-93 141 LINE",
"-32 190 LINE",
"30 -43 LINE"
);
},
{
closed = 1;
nodes = (
"491 381 LINE",
"503 330 LINE",
"22 375 LINE",
"70 414 LINE",
"48 175 LINE",
"20 224 LINE",
"490 179 LINE",
"469 141 LINE"
);
}
);
width = 529;
}
);
unicode = FEA3;
},
{
glyphname = "dal-ar";
layers = (
{
anchors = (
{
name = bottom;
position = "{186, -50}";
},
{
name = top;
position = "{264, 386}";
}
);
layerId = "3DD6C797-E5ED-486C-89DE-75EDF9B2F8B8";
paths = (
{
closed = 1;
nodes = (
"-148 -3 LINE",
"401 49 LINE",
"357 -6 LINE",
"335 234 LINE",
"369 197 LINE",
"-161 148 LINE",
"17 199 LINE",
"39 -41 LINE"
);
},
{
closed = 1;
nodes = (
"348 86 LINE",
"348 392 LINE",
"197 351 LINE",
"197 86 LINE"
);
}
);
width = 372;
}
);
unicode = 062F;
},
{
glyphname = "reh-ar";
layers = (
{
anchors = (
{
name = bottom;
position = "{69, -220}";
},
{
name = top;
position = "{79, 404}";
}
);
layerId = "3DD6C797-E5ED-486C-89DE-75EDF9B2F8B8";
paths = (
{
closed = 1;
nodes = (
"166 -146 LINE",
"166 392 LINE",
"15 351 LINE",
"15 -187 LINE"
);
}
);
width = 181;
}
);
unicode = 0631;
},
{
glyphname = "seen-ar";
layers = (
{
anchors = (
{
name = bottom;
position = "{716, -60}";
},
{
name = top;
position = "{603, 380}";
}
);
layerId = "3DD6C797-E5ED-486C-89DE-75EDF9B2F8B8";
paths = (
{
closed = 1;
nodes = (
"137 -136 LINE",
"686 -84 LINE",
"506 -139 LINE",
"484 101 LINE",
"654 64 LINE",
"124 15 LINE",
"174 66 LINE",
"196 -174 LINE"
);
},
{
closed = 1;
nodes = (
"245 75 LINE",
"339 -12 LINE",
"58 61 LINE",
"20 -84 LINE",
"300 -160 LINE",
"185 -160 LINE"
);
},
{
closed = 1;
nodes = (
"500 50 LINE",
"497 64 LINE",
"485 63 LINE",
"478 48 LINE"
);
},
{
closed = 1;
nodes = (
"489 11 LINE",
"489 292 LINE",
"338 251 LINE",
"338 11 LINE"
);
},
{
closed = 1;
nodes = (
"697 49 LINE",
"658 195 LINE",
"467 143 LINE",
"506 -3 LINE"
);
},
{
closed = 1;
nodes = (
"686 86 LINE",
"686 342 LINE",
"535 301 LINE",
"535 86 LINE"
);
},
{
closed = 1;
nodes = (
"894 49 LINE",
"855 195 LINE",
"664 143 LINE",
"703 -3 LINE"
);
},
{
closed = 1;
nodes = (
"883 86 LINE",
"883 392 LINE",
"732 351 LINE",
"732 86 LINE"
);
}
);
width = 914;
}
);
unicode = 0633;
},
{
glyphname = "seen-ar.init";
layers = (
{
anchors = (
{
name = bottom;
position = "{311, -60}";
},
{
name = top;
position = "{311, 380}";
}
);
layerId = "3DD6C797-E5ED-486C-89DE-75EDF9B2F8B8";
paths = (
{
closed = 1;
nodes = (
"591 86 LINE",
"591 392 LINE",
"440 351 LINE",
"440 86 LINE"
);
},
{
closed = 1;
nodes = (
"208 49 LINE",
"169 195 LINE",
"-22 143 LINE",
"17 -3 LINE"
);
},
{
closed = 1;
nodes = (
"197 86 LINE",
"197 292 LINE",
"46 251 LINE",
"46 86 LINE"
);
},
{
closed = 1;
nodes = (
"405 49 LINE",
"366 195 LINE",
"175 143 LINE",
"214 -3 LINE"
);
},
{
closed = 1;
nodes = (
"394 86 LINE",
"394 342 LINE",
"243 301 LINE",
"243 86 LINE"
);
},
{
closed = 1;
nodes = (
"602 49 LINE",
"563 195 LINE",
"372 143 LINE",
"411 -3 LINE"
);
}
);
width = 622;
}
);
unicode = FEB3;
},
{
glyphname = "sad-ar";
layers = (
{
anchors = (
{
name = bottom;
position = "{898, 0}";
},
{
name = top;
position = "{812, 386}";
}
);
layerId = "3DD6C797-E5ED-486C-89DE-75EDF9B2F8B8";
paths = (
{
closed = 1;
nodes = (
"285 -18 LINE",
"1049 54 LINE",
"1034 5 LINE",
"971 239 LINE",
"1017 202 LINE",
"270 132 LINE",
"462 162 LINE",
"513 -31 LINE"
);
},
{
closed = 1;
nodes = (
"240 75 LINE",
"334 -12 LINE",
"53 61 LINE",
"15 -84 LINE",
"295 -160 LINE",
"180 -160 LINE"
);
},
{
closed = 1;
nodes = (
"132 -136 LINE",
"681 -84 LINE",
"501 -139 LINE",
"479 101 LINE",
"649 64 LINE",
"119 15 LINE",
"169 66 LINE",
"191 -174 LINE"
);
},
{
closed = 1;
nodes = (
"495 50 LINE",
"495 81 LINE",
"472 83 LINE",
"473 48 LINE"
);
},
{
closed = 1;
nodes = (
"484 26 LINE",
"484 332 LINE",
"333 291 LINE",
"333 26 LINE"
);
},
{
closed = 1;
nodes = (
"672 86 LINE",
"672 274 LINE",
"521 229 LINE",
"521 86 LINE"
);
},
{
closed = 1;
nodes = (
"999 385 LINE",
"1011 334 LINE",
"530 379 LINE",
"538 418 LINE",
"516 179 LINE",
"498 231 LINE",
"998 183 LINE",
"977 145 LINE"
);
}
);
width = 1037;
}
);
unicode = 0635;
},
{
glyphname = "sad-ar.init";
layers = (
{
anchors = (
{
name = bottom;
position = "{609, 0}";
},
{
name = top;
position = "{523, 386}";
}
);
layerId = "3DD6C797-E5ED-486C-89DE-75EDF9B2F8B8";
paths = (
{
closed = 1;
nodes = (
"-9 -18 LINE",
"755 54 LINE",
"745 5 LINE",
"682 239 LINE",
"723 202 LINE",
"-24 132 LINE",
"-23 139 LINE",
"22 -31 LINE"
);
},
{
closed = 1;
nodes = (
"195 86 LINE",
"195 332 LINE",
"44 291 LINE",
"44 86 LINE"
);
},
{
closed = 1;
nodes = (
"383 86 LINE",
"383 274 LINE",
"232 229 LINE",
"232 86 LINE"
);
},
{
closed = 1;
nodes = (
"710 385 LINE",
"722 334 LINE",
"241 379 LINE",
"249 418 LINE",
"227 179 LINE",
"209 231 LINE",
"709 183 LINE",
"688 145 LINE"
);
}
);
width = 747;
}
);
unicode = FEBB;
},
{
glyphname = "tah-ar";
layers = (
{
anchors = (
{
name = bottom;
position = "{609, 0}";
},
{
name = top;
position = "{523, 386}";
}
);
layerId = "3DD6C797-E5ED-486C-89DE-75EDF9B2F8B8";
paths = (
{
closed = 1;
nodes = (
"-9 -18 LINE",
"755 54 LINE",
"754 -3 LINE",
"690 239 LINE",
"728 202 LINE",
"-24 132 LINE",
"-2 200 LINE",
"60 -33 LINE"
);
},
{
closed = 1;
nodes = (
"232 39 LINE",
"232 620 LINE",
"81 620 LINE",
"81 -3 LINE"
);
},
{
closed = 1;
nodes = (
"257 528 LINE",
"218 674 LINE",
"42 626 LINE",
"81 480 LINE"
);
},
{
closed = 1;
nodes = (
"717 385 LINE",
"722 334 LINE",
"191 384 LINE",
"242 418 LINE",
"220 179 LINE",
"209 231 LINE",
"709 183 LINE",
"695 145 LINE"
);
}
);
width = 754;
}
);
unicode = 0637;
},
{
glyphname = "ain-ar";
layers = (
{
anchors = (
{
name = bottom;
position = "{300, -200}";
},
{
name = top;
position = "{297, 516}";
}
);
layerId = "3DD6C797-E5ED-486C-89DE-75EDF9B2F8B8";
paths = (
{
closed = 1;
nodes = (
"-35 -4 LINE",
"578 54 LINE",
"568 5 LINE",
"505 239 LINE",
"546 202 LINE",
"-66 145 LINE",
"4 195 LINE",
"67 -39 LINE"
);
},
{
closed = 1;
nodes = (
"106 -175 LINE",
"306 -38 LINE",
"345 -147 LINE",
"178 91 LINE",
"55 5 LINE",
"220 -234 LINE"
);
},
{
closed = 1;
nodes = (
"400 93 LINE",
"465 229 LINE",
"198 353 LINE",
"440 309 LINE",
"500 453 LINE",
"231 500 LINE",
"73 194 LINE",
"37 260 LINE"
);
}
);
width = 570;
}
);
unicode = 0639;
},
{
glyphname = "ain-ar.fina";
layers = (
{
anchors = (
{
name = bottom;
position = "{289, -200}";
},
{
name = top;
position = "{297, 516}";
}
);
layerId = "3DD6C797-E5ED-486C-89DE-75EDF9B2F8B8";
paths = (
{
closed = 1;
nodes = (
"106 -175 LINE",
"306 -38 LINE",
"345 -147 LINE",
"178 91 LINE",
"55 5 LINE",
"220 -234 LINE"
);
},
{
closed = 1;
nodes = (
"-35 -4 LINE",
"578 54 LINE",
"568 5 LINE",
"505 239 LINE",
"546 202 LINE",
"-66 145 LINE",
"4 195 LINE",
"67 -39 LINE"
);
},
{
closed = 1;
nodes = (
"546 348 LINE",
"549 264 LINE",
"329 365 LINE",
"409 412 LINE",
"305 192 LINE",
"442 129 LINE"
);
},
{
closed = 1;
nodes = (
"420 84 LINE",
"484 219 LINE",
"197 353 LINE",
"440 309 LINE",
"500 453 LINE",
"231 500 LINE",
"73 194 LINE",
"37 260 LINE"
);
}
);
width = 524;
}
);
unicode = FECA;
},
{
glyphname = "ain-ar.medi";
layers = (
{
anchors = (
{
name = bottom;
position = "{233, -50}";
},
{
name = top;
position = "{240, 516}";
}
);
layerId = "3DD6C797-E5ED-486C-89DE-75EDF9B2F8B8";
paths = (
{
closed = 1;
nodes = (
"-92 -4 LINE",
"521 54 LINE",
"521 5 LINE",
"458 239 LINE",
"489 202 LINE",
"-123 145 LINE",
"-34 201 LINE",
"30 -35 LINE"
);
},
{
closed = 1;
nodes = (
"489 348 LINE",
"492 264 LINE",
"272 365 LINE",
"352 412 LINE",
"248 192 LINE",
"385 129 LINE"
);
},
{
closed = 1;
nodes = (
"363 84 LINE",
"427 219 LINE",
"360 250 LINE",
"358 249 LINE",
"359 251 LINE",
"140 353 LINE",
"383 309 LINE",
"443 453 LINE",
"174 500 LINE",
"16 194 LINE",
"-20 260 LINE"
);
}
);
width = 457;
}
);
unicode = FECC;
},
{
glyphname = "ain-ar.init";
layers = (
{
anchors = (
{
name = bottom;
position = "{273, -50}";
},
{
name = top;
position = "{270, 516}";
}
);
layerId = "3DD6C797-E5ED-486C-89DE-75EDF9B2F8B8";
paths = (
{
closed = 1;
nodes = (
"-62 -4 LINE",
"551 54 LINE",
"516 -1 LINE",
"453 233 LINE",
"519 202 LINE",
"-93 145 LINE",
"-33 195 LINE",
"30 -39 LINE"
);
},
{
closed = 1;
nodes = (
"373 93 LINE",
"438 229 LINE",
"171 353 LINE",
"413 309 LINE",
"473 453 LINE",
"204 500 LINE",
"46 194 LINE",
"10 260 LINE"
);
}
);
width = 517;
}
);
unicode = FECB;
},
{
glyphname = "fehDotless-ar";
layers = (
{
anchors = (
{
name = bottom;
position = "{472, -50}";
},
{
name = top;
position = "{560, 441}";
}
);
layerId = "3DD6C797-E5ED-486C-89DE-75EDF9B2F8B8";
paths = (
{
closed = 1;
nodes = (
"157 -3 LINE",
"706 49 LINE",
"662 -6 LINE",
"640 234 LINE",
"674 197 LINE",
"144 148 LINE",
"174 199 LINE",
"196 -41 LINE"
);
},
{
closed = 1;
nodes = (
"245 206 LINE",
"339 119 LINE",
"58 192 LINE",
"20 47 LINE",
"300 -29 LINE",
"185 -29 LINE"
);
},
{
closed = 1;
nodes = (
"444 93 LINE",
"444 302 LINE",
"293 302 LINE",
"293 93 LINE"
);
},
{
closed = 1;
nodes = (
"653 61 LINE",
"653 348 LINE",
"502 348 LINE",
"502 61 LINE"
);
},
{
closed = 1;
nodes = (
"675 387 LINE",
"756 332 LINE",
"290 460 LINE",
"390 490 LINE",
"327 258 LINE",
"262 311 LINE",
"717 186 LINE",
"612 155 LINE"
);
}
);
width = 677;
}
);
unicode = 06A1;
},
{
glyphname = "fehDotless-ar.init";
layers = (
{
anchors = (
{
name = bottom;
position = "{225, -50}";
},
{
name = top;
position = "{313, 434}";
}
);
layerId = "3DD6C797-E5ED-486C-89DE-75EDF9B2F8B8";
paths = (
{
closed = 1;
nodes = (
"-90 -10 LINE",
"459 42 LINE",
"430 -5 LINE",
"367 227 LINE",
"427 190 LINE",
"-103 141 LINE",
"-35 181 LINE",
"28 -51 LINE"
);
},
{
closed = 1;
nodes = (
"197 86 LINE",
"197 295 LINE",
"46 295 LINE",
"46 86 LINE"
);
},
{
closed = 1;
nodes = (
"406 54 LINE",
"406 341 LINE",
"255 341 LINE",
"255 54 LINE"
);
},
{
closed = 1;
nodes = (
"428 380 LINE",
"509 325 LINE",
"43 453 LINE",
"143 483 LINE",
"80 251 LINE",
"15 304 LINE",
"470 179 LINE",
"365 148 LINE"
);
}
);
width = 435;
}
);
},
{
glyphname = "qafDotless-ar";
layers = (
{
anchors = (
{
name = bottom;
position = "{257, -200}";
},
{
name = top;
position = "{391, 441}";
}
);
layerId = "3DD6C797-E5ED-486C-89DE-75EDF9B2F8B8";
paths = (
{
closed = 1;
nodes = (
"506 387 LINE",
"587 332 LINE",
"121 460 LINE",
"221 490 LINE",
"158 258 LINE",
"93 311 LINE",
"548 186 LINE",
"443 155 LINE"
);
},
{
closed = 1;
nodes = (
"240 75 LINE",
"334 -12 LINE",
"53 61 LINE",
"15 -84 LINE",
"295 -160 LINE",
"180 -160 LINE"
);
},
{
closed = 1;
nodes = (
"359 178 LINE",
"433 122 LINE",
"154 200 LINE",
"101 12 LINE",
"71 108 LINE",
"392 15 LINE",
"295 -56 LINE"
);
},
{
closed = 1;
nodes = (
"132 -136 LINE",
"681 -84 LINE",
"501 -139 LINE",
"479 101 LINE",
"649 64 LINE",
"119 15 LINE",
"169 66 LINE",
"191 -174 LINE"
);
},
{
closed = 1;
nodes = (
"275 93 LINE",
"275 302 LINE",
"124 302 LINE",
"124 93 LINE"
);
},
{
closed = 1;
nodes = (
"484 26 LINE",
"484 348 LINE",
"333 348 LINE",
"333 26 LINE"
);
}
);
width = 513;
}
);
unicode = 066F;
},
{
glyphname = "kafDotless-ar";
layers = (
{
anchors = (
{
name = bottom;
position = "{577, -50}";
},
{
name = top;
position = "{208, 233}";
}
);
layerId = "3DD6C797-E5ED-486C-89DE-75EDF9B2F8B8";
paths = (
{
closed = 1;
nodes = (
"152 -3 LINE",
"701 49 LINE",
"657 -6 LINE",
"635 234 LINE",
"669 197 LINE",
"139 148 LINE",
"169 199 LINE",
"191 -41 LINE"
);
},
{
closed = 1;
nodes = (
"240 206 LINE",
"334 119 LINE",
"53 192 LINE",
"15 47 LINE",
"295 -29 LINE",
"180 -29 LINE"
);
},
{
closed = 1;
nodes = (
"648 86 LINE",
"648 620 LINE",
"497 579 LINE",
"497 86 LINE"
);
}
);
width = 667;
}
);
},
{
glyphname = "kaf-ar.init";
layers = (
{
anchors = (
{
name = bottom;
position = "{263, -50}";
},
{
name = top;
position = "{110, 548}";
}
);
layerId = "3DD6C797-E5ED-486C-89DE-75EDF9B2F8B8";
paths = (
{
closed = 1;
nodes = (
"-62 -8 LINE",
"551 50 LINE",
"538 1 LINE",
"475 235 LINE",
"519 198 LINE",
"-93 141 LINE",
"-32 190 LINE",
"30 -43 LINE"
);
},
{
closed = 1;
nodes = (
"503 381 LINE",
"525 330 LINE",
"-6 380 LINE",
"67 415 LINE",
"45 175 LINE",
"12 227 LINE",
"512 179 LINE",
"481 141 LINE"
);
},
{
closed = 1;
nodes = (
"1 344 LINE",
"526 418 LINE",
"449 367 LINE",
"406 604 LINE",
"531 550 LINE",
"6 476 LINE",
"18 529 LINE",
"60 293 LINE"
);
},
{
closed = 1;
nodes = (
"442 406 LINE",
"395 668 LINE",
"456 569 LINE",
"184 531 LINE",
"213 642 LINE",
"259 386 LINE"
);
}
);
width = 550;
}
);
unicode = FEDB;
},
{
glyphname = "keheh-ar";
layers = (
{
anchors = (
{
name = bottom;
position = "{457, -50}";
},
{
name = top;
position = "{278, 548}";
}
);
components = (
{
name = "kaf-ar.init";
transform = "{1, 0, 0, 1, 168, 0}";
}
);
layerId = "3DD6C797-E5ED-486C-89DE-75EDF9B2F8B8";
paths = (
{
closed = 1;
nodes = (
"240 206 LINE",
"334 119 LINE",
"53 192 LINE",
"15 47 LINE",
"295 -29 LINE",
"180 -29 LINE"
);
}
);
width = 708;
}
);
unicode = 06A9;
},
{
glyphname = "gaf-ar.medi";
layers = (
{
anchors = (
{
name = bottom;
position = "{275, -50}";
},
{
name = top;
position = "{162, 626}";
}
);
components = (
{
name = "keheh-ar.medi";
}
);
layerId = "3DD6C797-E5ED-486C-89DE-75EDF9B2F8B8";
paths = (
{
closed = 1;
nodes = (
"2 548 LINE",
"226 580 LINE",
"213 551 LINE",
"201 620 LINE",
"222 598 LINE",
"7 568 LINE",
"13 587 LINE",
"22 534 LINE"
);
}
);
width = 497;
}
);
unicode = FB95;
},
{
glyphname = "lam-ar";
layers = (
{
anchors = (
{
name = bottom;
position = "{398, -184}";
},
{
name = top;
position = "{380, 700}";
}
);
layerId = "3DD6C797-E5ED-486C-89DE-75EDF9B2F8B8";
paths = (
{
closed = 1;
nodes = (
"469 -5 LINE",
"469 620 LINE",
"318 579 LINE",
"318 -5 LINE"
);
},
{
closed = 1;
nodes = (
"245 75 LINE",
"339 -12 LINE",
"58 61 LINE",
"20 -84 LINE",
"300 -160 LINE",
"185 -160 LINE"
);
},
{
closed = 1;
nodes = (
"137 -136 LINE",
"686 -84 LINE",
"486 -139 LINE",
"464 101 LINE",
"654 64 LINE",
"124 15 LINE",
"174 66 LINE",
"196 -174 LINE"
);
},
{
closed = 1;
nodes = (
"494 528 LINE",
"455 674 LINE",
"279 626 LINE",
"318 480 LINE"
);
}
);
width = 514;
}
);
unicode = 0644;
},
{
glyphname = "lam-ar.init";
layers = (
{
anchors = (
{
name = bottom;
position = "{126, -50}";
},
{
name = ring;
position = "{114, 0}";
},
{
name = top;
position = "{108, 667}";
}
);
layerId = "3DD6C797-E5ED-486C-89DE-75EDF9B2F8B8";
paths = (
{
closed = 1;
nodes = (
"197 82 LINE",
"197 620 LINE",
"46 579 LINE",
"46 82 LINE"
);
},
{
closed = 1;
nodes = (
"208 45 LINE",
"169 191 LINE",
"-22 139 LINE",
"17 -7 LINE"
);
}
);
width = 228;
}
);
unicode = FEDF;
},
{
glyphname = "meem-ar";
layers = (
{
anchors = (
{
name = bottom;
position = "{349, -136}";
},
{
name = top;
position = "{214, 480}";
}
);
components = (
{
name = "meem-ar.init";
transform = "{1, 0, 0, 1, 46, 0}";
}
);
layerId = "3DD6C797-E5ED-486C-89DE-75EDF9B2F8B8";
paths = (
{
closed = 1;
nodes = (
"166 -146 LINE",
"166 174 LINE",
"15 133 LINE",
"15 -187 LINE"
);
}
);
width = 465;
}
);
unicode = 0645;
},
{
glyphname = "meem-ar.init";
layers = (
{
anchors = (
{
name = bottom;
position = "{210, -50}";
},
{
name = top;
position = "{210, 480}";
}
);
layerId = "3DD6C797-E5ED-486C-89DE-75EDF9B2F8B8";
paths = (
{
closed = 1;
nodes = (
"364 312 LINE",
"352 256 LINE",
"293 490 LINE",
"328 457 LINE",
"-57 357 LINE",
"23 412 LINE",
"83 177 LINE",
"-18 209 LINE"
);
},
{
closed = 1;
nodes = (
"404 45 LINE",
"365 191 LINE",
"174 139 LINE",
"213 -7 LINE"
);
},
{
closed = 1;
nodes = (
"393 328 LINE",
"242 328 LINE",
"242 82 LINE",
"393 82 LINE"
);
},
{
closed = 1;
nodes = (
"223 45 LINE",
"184 191 LINE",
"-50 127 LINE",
"-34 182 LINE",
"29 -50 LINE",
"-11 -19 LINE"
);
},
{
closed = 1;
nodes = (
"196 328 LINE",
"45 328 LINE",
"45 82 LINE",
"196 82 LINE"
);
}
);
width = 419;
}
);
unicode = FEE3;
},
{
glyphname = "noonghunna-ar";
layers = (
{
anchors = (
{
name = bottom;
position = "{398, -184}";
},
{
name = top;
position = "{154, 223}";
}
);
layerId = "3DD6C797-E5ED-486C-89DE-75EDF9B2F8B8";
paths = (
{
closed = 1;
nodes = (
"469 -12 LINE",
"469 392 LINE",
"318 351 LINE",
"318 -12 LINE"
);
},
{
closed = 1;
nodes = (
"245 75 LINE",
"339 -12 LINE",
"58 61 LINE",
"20 -84 LINE",
"300 -160 LINE",
"185 -160 LINE"
);
},
{
closed = 1;
nodes = (
"137 -136 LINE",
"686 -84 LINE",
"486 -139 LINE",
"464 101 LINE",
"654 64 LINE",
"124 15 LINE",
"174 66 LINE",
"196 -174 LINE"
);
}
);
width = 503;
}
);
unicode = 06BA;
},
{
glyphname = "heh-ar";
layers = (
{
anchors = (
{
name = bottom;
position = "{212, -50}";
},
{
name = top;
position = "{201, 448}";
}
);
layerId = "3DD6C797-E5ED-486C-89DE-75EDF9B2F8B8";
paths = (
{
closed = 1;
nodes = (
"-11 -33 LINE",
"408 82 LINE",
"369 228 LINE",
"-50 113 LINE",
"5 168 LINE",
"68 -64 LINE"
);
},
{
closed = 1;
nodes = (
"375 396 LINE",
"224 354 LINE",
"224 126 LINE",
"375 126 LINE"
);
},
{
closed = 1;
nodes = (
"166 225 LINE",
"15 225 LINE",
"15 130 LINE",
"166 130 LINE"
);
},
{
closed = 1;
nodes = (
"338 422 LINE",
"295 271 LINE",
"98 410 LINE",
"213 511 LINE",
"15 225 LINE",
"139 140 LINE"
);
},
{
closed = 1;
nodes = (
"400 304 LINE",
"361 450 LINE",
"185 402 LINE",
"224 256 LINE"
);
}
);
width = 423;
}
);
unicode = 0647;
},
{
glyphname = "heh-ar.fina";
layers = (
{
anchors = (
{
name = bottom;
position = "{204, -50}";
},
{
name = top;
position = "{234, 448}";
}
);
layerId = "3DD6C797-E5ED-486C-89DE-75EDF9B2F8B8";
paths = (
{
closed = 1;
nodes = (
"-11 -33 LINE",
"408 82 LINE",
"369 228 LINE",
"-50 113 LINE",
"5 168 LINE",
"68 -64 LINE"
);
},
{
closed = 1;
nodes = (
"166 225 LINE",
"15 225 LINE",
"15 130 LINE",
"166 130 LINE"
);
},
{
closed = 1;
nodes = (
"338 422 LINE",
"295 271 LINE",
"98 410 LINE",
"213 511 LINE",
"15 225 LINE",
"139 140 LINE"
);
},
{
closed = 1;
nodes = (
"201 -15 LINE",
"435 49 LINE",
"396 195 LINE",
"162 131 LINE",
"219 194 LINE",
"282 -38 LINE"
);
},
{
closed = 1;
nodes = (
"408 396 LINE",
"257 354 LINE",
"257 126 LINE",
"408 126 LINE"
);
},
{
closed = 1;
nodes = (
"433 304 LINE",
"394 450 LINE",
"218 402 LINE",
"257 256 LINE"
);
}
);
width = 408;
}
);
unicode = FEEA;
},
{
glyphname = "heh-ar.medi";
layers = (
{
anchors = (
{
name = bottom;
position = "{203, -289}";
},
{
name = top;
position = "{203, 433}";
}
);
layerId = "3DD6C797-E5ED-486C-89DE-75EDF9B2F8B8";
paths = (
{
closed = 1;
nodes = (
"44 -160 LINE",
"195 -205 LINE",
"195 37 LINE",
"44 37 LINE"
);
},
{
closed = 1;
nodes = (
"253 -33 LINE",
"404 -33 LINE",
"404 73 LINE",
"253 73 LINE"
);
},
{
closed = 1;
nodes = (
"81 -230 LINE",
"124 -74 LINE",
"321 -213 LINE",
"206 -319 LINE",
"404 -33 LINE",
"280 52 LINE"
);
},
{
closed = 1;
nodes = (
"460 57 LINE",
"457 2 LINE",
"394 234 LINE",
"421 203 LINE",
"144 127 LINE",
"141 182 LINE",
"204 -50 LINE",
"183 -19 LINE"
);
},
{
closed = 1;
nodes = (
"279 57 LINE",
"232 2 LINE",
"169 234 LINE",
"240 203 LINE",
"-37 127 LINE",
"-35 182 LINE",
"31 -50 LINE",
"2 -19 LINE"
);
},
{
closed = 1;
nodes = (
"195 109 LINE",
"195 366 LINE",
"44 306 LINE",
"44 109 LINE"
);
},
{
closed = 1;
nodes = (
"404 179 LINE",
"206 465 LINE",
"321 359 LINE",
"124 220 LINE",
"81 376 LINE",
"280 94 LINE"
);
},
{
closed = 1;
nodes = (
"247 170 LINE",
"310 402 LINE",
"323 331 LINE",
"4 419 LINE",
"79 450 LINE",
"16 218 LINE",
"-35 273 LINE",
"291 183 LINE"
);
},
{
closed = 1;
nodes = (
"-35 -127 LINE",
"16 -72 LINE",
"79 -304 LINE",
"4 -273 LINE",
"323 -185 LINE",
"310 -256 LINE",
"247 -24 LINE",
"291 -37 LINE"
);
}
);
width = 405;
}
);
unicode = FEEC;
},
{
glyphname = "heh-ar.init";
layers = (
{
anchors = (
{
name = bottom;
position = "{286, -50}";
},
{
name = top;
position = "{286, 500}";
}
);
layerId = "3DD6C797-E5ED-486C-89DE-75EDF9B2F8B8";
paths = (
{
closed = 1;
nodes = (
"-22 -21 LINE",
"437 105 LINE",
"398 251 LINE",
"-48 129 LINE",
"-38 191 LINE",
"26 -41 LINE"
);
},
{
closed = 1;
nodes = (
"404 419 LINE",
"253 377 LINE",
"253 149 LINE",
"404 149 LINE"
);
},
{
closed = 1;
nodes = (
"195 248 LINE",
"44 248 LINE",
"44 153 LINE",
"195 153 LINE"
);
},
{
closed = 1;
nodes = (
"367 445 LINE",
"324 294 LINE",
"127 433 LINE",
"242 534 LINE",
"44 248 LINE",
"168 163 LINE"
);
},
{
closed = 1;
nodes = (
"429 327 LINE",
"390 473 LINE",
"214 425 LINE",
"253 279 LINE"
);
},
{
closed = 1;
nodes = (
"227 -10 LINE",
"623 99 LINE",
"607 62 LINE",
"607 294 LINE",
"622 255 LINE",
"188 136 LINE",
"243 191 LINE",
"306 -41 LINE"
);
},
{
closed = 1;
nodes = (
"607 251 LINE",
"409 537 LINE",
"524 436 LINE",
"327 297 LINE",
"284 448 LINE",
"483 166 LINE"
);
}
);
width = 622;
}
);
unicode = FEEB;
},
{
glyphname = "hehgoal-ar.fina";
layers = (
{
anchors = (
{
name = bottom;
position = "{203, -50}";
},
{
name = top;
position = "{228, 420}";
}
);
layerId = "3DD6C797-E5ED-486C-89DE-75EDF9B2F8B8";
paths = (
{
closed = 1;
nodes = (
"25 -23 LINE",
"219 30 LINE",
"210 9 LINE",
"152 223 LINE",
"412 240 LINE",
"-50 113 LINE",
"5 168 LINE",
"61 -37 LINE"
);
},
{
closed = 1;
nodes = (
"166 213 LINE",
"15 213 LINE",
"15 131 LINE",
"166 131 LINE"
);
},
{
closed = 1;
nodes = (
"241 274 LINE",
"241 242 LINE",
"63 368 LINE",
"119 365 LINE",
"15 214 LINE",
"139 129 LINE"
);
},
{
closed = 1;
nodes = (
"200 -15 LINE",
"434 49 LINE",
"395 195 LINE",
"161 131 LINE",
"218 194 LINE",
"281 -38 LINE"
);
},
{
closed = 1;
nodes = (
"407 366 LINE",
"256 324 LINE",
"256 126 LINE",
"407 126 LINE"
);
},
{
closed = 1;
nodes = (
"432 274 LINE",
"393 420 LINE",
"87 336 LINE",
"87 396 LINE",
"150 164 LINE",
"106 185 LINE"
);
}
);
width = 407;
}
);
unicode = FBA7;
},
{
glyphname = "hehgoal-ar.medi";
layers = (
{
anchors = (
{
name = bottom;
position = "{203, -289}";
},
{
name = top;
position = "{203, 433}";
}
);
layerId = "3DD6C797-E5ED-486C-89DE-75EDF9B2F8B8";
paths = (
{
closed = 1;
nodes = (
"44 -160 LINE",
"195 -205 LINE",
"195 34 LINE",
"44 34 LINE"
);
},
{
closed = 1;
nodes = (
"253 -33 LINE",
"404 -33 LINE",
"404 73 LINE",
"253 73 LINE"
);
},
{
closed = 1;
nodes = (
"81 -230 LINE",
"124 -74 LINE",
"321 -213 LINE",
"206 -319 LINE",
"404 -33 LINE",
"280 52 LINE"
);
},
{
closed = 1;
nodes = (
"460 57 LINE",
"457 2 LINE",
"394 234 LINE",
"421 203 LINE",
"144 127 LINE",
"217 203 LINE",
"280 -29 LINE",
"183 -19 LINE"
);
},
{
closed = 1;
nodes = (
"279 57 LINE",
"204 2 LINE",
"141 234 LINE",
"240 203 LINE",
"-37 127 LINE",
"-35 182 LINE",
"31 -50 LINE",
"2 -19 LINE"
);
},
{
closed = 1;
nodes = (
"404 90 LINE",
"404 199 LINE",
"253 137 LINE",
"253 90 LINE"
);
},
{
closed = 1;
nodes = (
"-35 -127 LINE",
"16 -72 LINE",
"79 -304 LINE",
"4 -273 LINE",
"323 -185 LINE",
"310 -256 LINE",
"247 -24 LINE",
"291 -37 LINE"
);
}
);
width = 405;
}
);
unicode = FBA9;
},
{
glyphname = "hehgoal-ar.init";
layers = (
{
anchors = (
{
name = bottom;
position = "{112, -200}";
},
{
name = top;
position = "{112, 500}";
}
);
components = (
{
name = "behDotless-ar.init";
}
);
layerId = "3DD6C797-E5ED-486C-89DE-75EDF9B2F8B8";
paths = (
{
closed = 1;
nodes = (
"82 -11 LINE",
"82 -141 LINE",
"71 -127 LINE",
"157 -150 LINE",
"146 -159 LINE",
"146 40 LINE",
"186 -2 LINE",
"67 -35 LINE"
);
},
{
closed = 1;
nodes = (
"101 -60 LINE",
"82 -130 LINE",
"205 -164 LINE",
"165 -170 LINE",
"187 -91 LINE",
"221 -107 LINE",
"86 -70 LINE"
);
}
);
width = 224;
}
);
unicode = FBA8;
},
{
glyphname = "waw-ar";
layers = (
{
anchors = (
{
name = bottom;
position = "{202, -269}";
},
{
name = center;
position = "{202, 250}";
},
{
name = top;
position = "{238, 449}";
}
);
layerId = "3DD6C797-E5ED-486C-89DE-75EDF9B2F8B8";
paths = (
{
closed = 1;
nodes = (
"397 387 LINE",
"478 332 LINE",
"12 460 LINE",
"112 490 LINE",
"49 258 LINE",
"-16 311 LINE",
"439 186 LINE",
"334 155 LINE"
);
},
{
closed = 1;
nodes = (
"250 178 LINE",
"324 122 LINE",
"45 200 LINE",
"-8 12 LINE",
"-38 108 LINE",
"283 15 LINE",
"186 -56 LINE"
);
},
{
closed = 1;
nodes = (
"166 93 LINE",
"166 302 LINE",
"15 302 LINE",
"15 93 LINE"
);
},
{
closed = 1;
nodes = (
"374 -146 LINE",
"374 351 LINE",
"223 351 LINE",
"223 -187 LINE"
);
}
);
width = 404;
}
);
unicode = 0648;
},
{
glyphname = "alefMaksura-ar";
layers = (
{
anchors = (
{
name = bottom;
position = "{405, -168}";
},
{
name = top;
position = "{107, 116}";
}
);
layerId = "3DD6C797-E5ED-486C-89DE-75EDF9B2F8B8";
paths = (
{
closed = 1;
nodes = (
"604 387 LINE",
"695 332 LINE",
"229 460 LINE",
"395 490 LINE",
"332 258 LINE",
"201 311 LINE",
"656 186 LINE",
"541 155 LINE"
);
},
{
closed = 1;
nodes = (
"261 69 LINE",
"334 -12 LINE",
"53 61 LINE",
"15 -84 LINE",
"295 -160 LINE",
"201 -166 LINE"
);
},
{
closed = 1;
nodes = (
"454 76 LINE",
"454 302 LINE",
"303 302 LINE",
"303 76 LINE"
);
},
{
closed = 1;
nodes = (
"592 33 LINE",
"592 154 LINE",
"441 154 LINE",
"441 33 LINE"
);
},
{
closed = 1;
nodes = (
"602 192 LINE",
"652 137 LINE",
"186 265 LINE",
"362 295 LINE",
"299 63 LINE",
"158 116 LINE",
"613 -9 LINE",
"539 -40 LINE"
);
},
{
closed = 1;
nodes = (
"-117 -168 LINE",
"647 -96 LINE",
"646 -153 LINE",
"582 89 LINE",
"620 52 LINE",
"-132 -18 LINE",
"135 138 LINE",
"233 -229 LINE"
);
}
);
width = 646;
}
);
unicode = 0649;
},
{
glyphname = "alefMaksura-ar.fina";
layers = (
{
anchors = (
{
name = bottom;
position = "{405, -168}";
},
{
name = top;
position = "{107, 116}";
}
);
layerId = "3DD6C797-E5ED-486C-89DE-75EDF9B2F8B8";
paths = (
{
closed = 1;
nodes = (
"592 33 LINE",
"592 154 LINE",
"441 154 LINE",
"441 33 LINE"
);
},
{
closed = 1;
nodes = (
"608 187 LINE",
"652 137 LINE",
"186 265 LINE",
"362 295 LINE",
"299 63 LINE",
"158 116 LINE",
"613 -9 LINE",
"545 -45 LINE"
);
},
{
closed = 1;
nodes = (
"261 69 LINE",
"334 -12 LINE",
"53 61 LINE",
"15 -84 LINE",
"295 -160 LINE",
"201 -166 LINE"
);
},
{
closed = 1;
nodes = (
"-117 -168 LINE",
"647 -96 LINE",
"646 -153 LINE",
"582 89 LINE",
"620 52 LINE",
"-132 -18 LINE",
"135 138 LINE",
"233 -229 LINE"
);
}
);
width = 588;
}
);
unicode = FEF0;
},
{
glyphname = "yehbarree-ar";
layers = (
{
anchors = (
{
name = bottom;
position = "{203, -191}";
},
{
name = top;
position = "{122, 208}";
}
);
layerId = "3DD6C797-E5ED-486C-89DE-75EDF9B2F8B8";
paths = (
{
closed = 1;
nodes = (
"381 -208 LINE",
"704 -120 LINE",
"565 -180 LINE",
"505 53 LINE",
"667 21 LINE",
"342 -64 LINE",
"417 17 LINE",
"475 -217 LINE"
);
},
{
closed = 1;
nodes = (
"541 93 LINE",
"778 -63 LINE",
"26 7 LINE",
"41 50 LINE",
"98 -167 LINE",
"-1 -141 LINE",
"763 -213 LINE",
"443 -274 LINE"
);
},
{
closed = 1;
nodes = (
"-26 -8 LINE",
"597 51 LINE",
"586 3 LINE",
"527 226 LINE",
"555 198 LINE",
"-57 141 LINE",
"4 190 LINE",
"75 -78 LINE"
);
},
{
closed = 1;
nodes = (
"-41 152 LINE",
"-8 233 LINE",
"117 -233 LINE",
"60 -133 LINE",
"263 -146 LINE",
"260 -240 LINE",
"135 226 LINE",
"162 139 LINE"
);
}
);
width = 589;
}
);
unicode = 06D2;
},
{
glyphname = "lam_alef-ar";
layers = (
{
anchors = (
{
name = bottom_1;
position = "{488, -50}";
},
{
name = bottom_2;
position = "{144, -50}";
},
{
name = caret_1;
position = "{299, -50}";
},
{
name = top_1;
position = "{445, 700}";
},
{
name = top_2;
position = "{115, 670}";
}
);
layerId = "3DD6C797-E5ED-486C-89DE-75EDF9B2F8B8";
paths = (
{
closed = 1;
nodes = (
"82 -10 LINE",
"631 42 LINE",
"588 -13 LINE",
"566 227 LINE",
"599 190 LINE",
"69 141 LINE",
"169 192 LINE",
"191 -48 LINE"
);
},
{
closed = 1;
nodes = (
"240 206 LINE",
"334 119 LINE",
"53 192 LINE",
"15 47 LINE",
"295 -29 LINE",
"180 -29 LINE"
);
},
{
closed = 1;
nodes = (
"130 806 LINE",
"257 697 LINE",
"60 558 LINE",
"-25 763 LINE",
"522 -5 LINE",
"413 69 LINE",
"590 202 LINE",
"716 -18 LINE"
);
},
{
closed = 1;
nodes = (
"264 528 LINE",
"225 674 LINE",
"49 626 LINE",
"88 480 LINE"
);
},
{
closed = 1;
nodes = (
"522 354 LINE",
"522 674 LINE",
"371 633 LINE",
"371 313 LINE"
);
},
{
closed = 1;
nodes = (
"163 -5 LINE",
"474 502 LINE",
"486 385 LINE",
"281 511 LINE",
"331 560 LINE",
"44 89 LINE",
"63 153 LINE",
"249 32 LINE"
);
}
);
width = 598;
}
);
unicode = FEFB;
},
{
glyphname = "lam_alef-ar.fina";
layers = (
{
anchors = (
{
name = bottom_1;
position = "{327, -50}";
},
{
name = bottom_2;
position = "{118, -50}";
},
{
name = caret_1;
position = "{222, 0}";
},
{
name = top_1;
position = "{309, 682}";
},
{
name = top_2;
position = "{118, 500}";
}
);
components = (
{
name = "lam-ar.init";
transform = "{1, 0, 0, 1, 201, 0}";
}
);
layerId = "3DD6C797-E5ED-486C-89DE-75EDF9B2F8B8";
paths = (
{
closed = 1;
nodes = (
"201 86 LINE",
"201 500 LINE",
"50 459 LINE",
"50 86 LINE"
);
},
{
closed = 1;
nodes = (
"-6 -15 LINE",
"228 49 LINE",
"189 195 LINE",
"-45 131 LINE",
"2 194 LINE",
"65 -38 LINE"
);
},
{
closed = 1;
nodes = (
"398 354 LINE",
"398 674 LINE",
"247 633 LINE",
"247 313 LINE"
);
}
);
width = 398;
}
);
unicode = FEFC;
},
{
glyphname = zero;
layers = (
{
layerId = "3DD6C797-E5ED-486C-89DE-75EDF9B2F8B8";
paths = (
{
closed = 1;
nodes = (
"399 462 LINE",
"-24 578 LINE",
"70 608 LINE",
"7 376 LINE",
"-52 429 LINE",
"368 314 LINE",
"351 232 LINE"
);
},
{
closed = 1;
nodes = (
"197 424 LINE",
"46 424 LINE",
"46 197 LINE",
"197 150 LINE"
);
},
{
closed = 1;
nodes = (
"399 106 LINE",
"399 462 LINE",
"248 462 LINE",
"248 106 LINE"
);
},
{
closed = 1;
nodes = (
"441 173 LINE",
"441 117 LINE",
"-25 245 LINE",
"67 275 LINE",
"4 43 LINE",
"-53 96 LINE",
"407 -30 LINE",
"381 -52 LINE"
);
}
);
width = 446;
}
);
unicode = 0030;
},
{
glyphname = one;
layers = (
{
layerId = "3DD6C797-E5ED-486C-89DE-75EDF9B2F8B8";
paths = (
{
closed = 1;
nodes = (
"230 85 LINE",
"230 482 LINE",
"79 523 LINE",
"79 85 LINE"
);
},
{
closed = 1;
nodes = (
"263 146 LINE",
"87 194 LINE",
"48 48 LINE",
"224 0 LINE"
);
},
{
closed = 1;
nodes = (
"230 482 LINE",
"54 530 LINE",
"15 384 LINE",
"191 336 LINE"
);
}
);
width = 278;
}
);
unicode = 0031;
},
{
glyphname = two;
layers = (
{
layerId = "3DD6C797-E5ED-486C-89DE-75EDF9B2F8B8";
paths = (
{
closed = 1;
nodes = (
"510 431 LINE",
"481 300 LINE",
"298 455 LINE",
"387 519 LINE",
"-21 41 LINE",
"-11 106 LINE",
"173 -49 LINE",
"91 -61 LINE"
);
},
{
closed = 1;
nodes = (
"456 190 LINE",
"540 139 LINE",
"59 184 LINE",
"208 223 LINE",
"186 -16 LINE",
"57 33 LINE",
"527 -12 LINE",
"434 -50 LINE"
);
},
{
closed = 1;
nodes = (
"197 323 LINE",
"197 377 LINE",
"46 377 LINE",
"46 286 LINE"
);
},
{
closed = 1;
nodes = (
"461 537 LINE",
"492 486 LINE",
"11 531 LINE",
"64 570 LINE",
"42 331 LINE",
"9 380 LINE",
"479 335 LINE",
"439 297 LINE"
);
}
);
width = 472;
}
);
unicode = 0032;
},
{
glyphname = three;
layers = (
{
layerId = "3DD6C797-E5ED-486C-89DE-75EDF9B2F8B8";
paths = (
{
closed = 1;
nodes = (
"285 -51 LINE",
"422 216 LINE",
"363 243 LINE",
"438 277 LINE",
"300 543 LINE",
"31 496 LINE",
"91 352 LINE",
"334 396 LINE",
"118 296 LINE",
"183 160 LINE",
"319 97 LINE",
"76 141 LINE",
"5 -26 LINE",
"-45 8 LINE"
);
}
);
width = 453;
}
);
unicode = 0033;
},
{
glyphname = four;
layers = (
{
layerId = "3DD6C797-E5ED-486C-89DE-75EDF9B2F8B8";
paths = (
{
closed = 1;
nodes = (
"481 271 LINE",
"505 216 LINE",
"-15 265 LINE",
"33 304 LINE",
"11 65 LINE",
"-17 114 LINE",
"495 65 LINE",
"459 31 LINE"
);
},
{
closed = 1;
nodes = (
"190 254 LINE",
"190 507 LINE",
"39 544 LINE",
"39 254 LINE"
);
},
{
closed = 1;
nodes = (
"402 0 LINE",
"402 414 LINE",
"251 414 LINE",
"251 0 LINE"
);
}
);
width = 481;
}
);
unicode = 0034;
},
{
glyphname = five;
layers = (
{
layerId = "3DD6C797-E5ED-486C-89DE-75EDF9B2F8B8";
paths = (
{
closed = 1;
nodes = (
"442 280 LINE",
"478 214 LINE",
"51 410 LINE",
"116 426 LINE",
"13 208 LINE",
"23 258 LINE",
"405 81 LINE",
"337 70 LINE"
);
},
{
closed = 1;
nodes = (
"366 128 LINE",
"413 104 LINE",
"29 174 LINE",
"101 225 LINE",
"5 -2 LINE",
"-45 32 LINE",
"329 -35 LINE",
"264 -67 LINE"
);
},
{
closed = 1;
nodes = (
"120 273 LINE",
"121 381 LINE",
"35 381 LINE",
"34 254 LINE"
);
},
{
closed = 1;
nodes = (
"0 359 LINE",
"470 404 LINE",
"382 355 LINE",
"360 594 LINE",
"468 555 LINE",
"-13 510 LINE",
"17 561 LINE",
"39 321 LINE"
);
}
);
width = 437;
}
);
unicode = 0035;
},
{
glyphname = six;
layers = (
{
layerId = "3DD6C797-E5ED-486C-89DE-75EDF9B2F8B8";
paths = (
{
closed = 1;
nodes = (
"383 152 LINE",
"429 99 LINE",
"-26 224 LINE",
"69 255 LINE",
"6 23 LINE",
"-65 78 LINE",
"401 -50 LINE",
"320 -80 LINE"
);
},
{
closed = 1;
nodes = (
"189 99 LINE",
"189 525 LINE",
"38 488 LINE",
"38 99 LINE"
);
},
{
closed = 1;
nodes = (
"398 108 LINE",
"398 243 LINE",
"247 243 LINE",
"247 108 LINE"
);
},
{
closed = 1;
nodes = (
"442 354 LINE",
"560 269 LINE",
"128 386 LINE",
"223 418 LINE",
"163 183 LINE",
"89 243 LINE",
"541 121 LINE",
"382 121 LINE"
);
},
{
closed = 1;
nodes = (
"-6 319 LINE",
"426 436 LINE",
"337 372 LINE",
"277 605 LINE",
"407 584 LINE",
"-45 467 LINE",
"29 522 LINE",
"89 287 LINE"
);
}
);
width = 444;
}
);
unicode = 0036;
},
{
glyphname = seven;
layers = (
{
layerId = "3DD6C797-E5ED-486C-89DE-75EDF9B2F8B8";
paths = (
{
closed = 1;
nodes = (
"96 0 LINE",
"405 29 LINE",
"254 -5 LINE",
"367 417 LINE",
"383 397 LINE",
"146 332 LINE",
"210 416 LINE",
"97 -6 LINE"
);
},
{
closed = 1;
nodes = (
"-65 335 LINE",
"405 380 LINE",
"372 331 LINE",
"350 570 LINE",
"403 531 LINE",
"-78 486 LINE",
"11 537 LINE",
"33 297 LINE"
);
}
);
width = 383;
}
);
unicode = 0037;
},
{
glyphname = eight;
layers = (
{
layerId = "3DD6C797-E5ED-486C-89DE-75EDF9B2F8B8";
paths = (
{
closed = 1;
nodes = (
"36 241 LINE",
"539 107 LINE",
"380 107 LINE",
"440 340 LINE",
"558 255 LINE",
"28 398 LINE",
"89 443 LINE"
);
},
{
closed = 1;
nodes = (
"347 155 LINE",
"341 109 LINE",
"-114 234 LINE",
"59 204 LINE",
"-4 -28 LINE",
"-153 88 LINE",
"313 -40 LINE",
"284 -77 LINE"
);
},
{
closed = 1;
nodes = (
"187 115 LINE",
"187 230 LINE",
"36 199 LINE",
"36 115 LINE"
);
},
{
closed = 1;
nodes = (
"396 20 LINE",
"396 229 LINE",
"245 229 LINE",
"245 20 LINE"
);
},
{
closed = 1;
nodes = (
"187 241 LINE",
"187 500 LINE",
"36 500 LINE",
"36 241 LINE"
);
},
{
closed = 1;
nodes = (
"396 331 LINE",
"396 455 LINE",
"245 455 LINE",
"245 300 LINE"
);
},
{
closed = 1;
nodes = (
"373 336 LINE",
"436 568 LINE",
"585 452 LINE",
"119 580 LINE",
"148 617 LINE",
"85 385 LINE",
"91 431 LINE",
"546 306 LINE"
);
}
);
width = 442;
}
);
unicode = 0038;
},
{
glyphname = nine;
layers = (
{
layerId = "3DD6C797-E5ED-486C-89DE-75EDF9B2F8B8";
paths = (
{
closed = 1;
nodes = (
"438 511 LINE",
"509 456 LINE",
"43 584 LINE",
"124 614 LINE",
"61 382 LINE",
"15 435 LINE",
"470 310 LINE",
"375 279 LINE"
);
},
{
closed = 1;
nodes = (
"37 -110 LINE",
"489 13 LINE",
"415 -48 LINE",
"355 187 LINE",
"450 155 LINE",
"18 38 LINE",
"107 102 LINE",
"167 -131 LINE"
);
},
{
closed = 1;
nodes = (
"281 291 LINE",
"355 236 LINE",
"-97 353 LINE",
"62 353 LINE",
"2 120 LINE",
"-116 205 LINE",
"316 88 LINE",
"221 56 LINE"
);
},
{
closed = 1;
nodes = (
"197 291 LINE",
"197 426 LINE",
"46 426 LINE",
"46 291 LINE"
);
},
{
closed = 1;
nodes = (
"406 -10 LINE",
"406 435 LINE",
"255 435 LINE",
"255 -41 LINE"
);
}
);
width = 444;
}
);
unicode = 0039;
},
{
glyphname = "zero-ar";
layers = (
{
layerId = "3DD6C797-E5ED-486C-89DE-75EDF9B2F8B8";
paths = (
{
closed = 1;
nodes = (
"240 305 LINE",
"64 353 LINE",
"25 207 LINE",
"201 159 LINE"
);
}
);
width = 265;
}
);
unicode = 0660;
},
{
glyphname = "one-ar";
layers = (
{
layerId = "3DD6C797-E5ED-486C-89DE-75EDF9B2F8B8";
paths = (
{
closed = 1;
nodes = (
"181 482 LINE",
"30 523 LINE",
"30 41 LINE",
"181 0 LINE"
);
}
);
width = 211;
}
);
unicode = 0661;
},
{
glyphname = "two-ar";
layers = (
{
layerId = "3DD6C797-E5ED-486C-89DE-75EDF9B2F8B8";
paths = (
{
closed = 1;
nodes = (
"350 537 LINE",
"461 486 LINE",
"-20 531 LINE",
"35 570 LINE",
"13 331 LINE",
"-22 380 LINE",
"448 335 LINE",
"328 297 LINE"
);
},
{
closed = 1;
nodes = (
"168 347 LINE",
"32 384 LINE",
"17 376 LINE",
"17 41 LINE",
"168 0 LINE"
);
}
);
width = 361;
}
);
unicode = 0662;
},
{
glyphname = "three-ar";
layers = (
{
layerId = "3DD6C797-E5ED-486C-89DE-75EDF9B2F8B8";
paths = (
{
closed = 1;
nodes = (
"166 347 LINE",
"15 388 LINE",
"15 41 LINE",
"166 0 LINE"
);
},
{
closed = 1;
nodes = (
"166 260 LINE",
"166 500 LINE",
"15 459 LINE",
"15 260 LINE"
);
},
{
closed = 1;
nodes = (
"397 235 LINE",
"336 180 LINE",
"273 412 LINE",
"358 381 LINE",
"124 317 LINE",
"163 171 LINE"
);
},
{
closed = 1;
nodes = (
"313 260 LINE",
"313 545 LINE",
"356 514 LINE",
"149 445 LINE",
"192 504 LINE",
"192 260 LINE"
);
},
{
closed = 1;
nodes = (
"501 223 LINE",
"462 369 LINE",
"271 317 LINE",
"310 171 LINE"
);
},
{
closed = 1;
nodes = (
"490 260 LINE",
"490 500 LINE",
"339 459 LINE",
"339 260 LINE"
);
}
);
width = 516;
}
);
unicode = 0663;
},
{
glyphname = "four-ar";
layers = (
{
layerId = "3DD6C797-E5ED-486C-89DE-75EDF9B2F8B8";
paths = (
{
closed = 1;
nodes = (
"362 358 LINE",
"385 301 LINE",
"42 460 LINE",
"112 472 LINE",
"4 261 LINE",
"-32 327 LINE",
"321 165 LINE",
"258 141 LINE"
);
},
{
closed = 1;
nodes = (
"123 -15 LINE",
"497 52 LINE",
"447 18 LINE",
"351 245 LINE",
"423 194 LINE",
"39 124 LINE",
"86 148 LINE",
"188 -47 LINE"
);
},
{
closed = 1;
nodes = (
"57 81 LINE",
"400 240 LINE",
"301 137 LINE",
"198 355 LINE",
"336 376 LINE",
"-16 214 LINE",
"20 280 LINE",
"126 70 LINE"
);
},
{
closed = 1;
nodes = (
"431 523 LINE",
"482 489 LINE",
"152 547 LINE",
"70 390 LINE",
"24 417 LINE",
"408 347 LINE",
"336 296 LINE"
);
}
);
width = 462;
}
);
unicode = 0664;
},
{
glyphname = "five-ar";
layers = (
{
layerId = "3DD6C797-E5ED-486C-89DE-75EDF9B2F8B8";
paths = (
{
closed = 1;
nodes = (
"425 190 LINE",
"461 139 LINE",
"-20 184 LINE",
"33 223 LINE",
"11 -16 LINE",
"-22 33 LINE",
"448 -12 LINE",
"403 -50 LINE"
);
},
{
closed = 1;
nodes = (
"-4 172 LINE",
"216 172 LINE",
"160 87 LINE",
"317 726 LINE",
"292 492 LINE",
"93 492 LINE",
"174 722 LINE",
"-4 58 LINE"
);
},
{
closed = 1;
nodes = (
"421 143 LINE",
"421 383 LINE",
"270 383 LINE",
"270 143 LINE"
);
},
{
closed = 1;
nodes = (
"436 529 LINE",
"496 478 LINE",
"15 523 LINE",
"118 562 LINE",
"96 323 LINE",
"13 372 LINE",
"483 327 LINE",
"414 289 LINE"
);
}
);
width = 447;
}
);
unicode = 0665;
},
{
glyphname = "seven-ar";
layers = (
{
layerId = "3DD6C797-E5ED-486C-89DE-75EDF9B2F8B8";
paths = (
{
closed = 1;
nodes = (
"187 0 LINE",
"393 0 LINE",
"347 -25 LINE",
"511 589 LINE",
"511 500 LINE",
"291 500 LINE",
"347 560 LINE",
"190 -79 LINE"
);
},
{
closed = 1;
nodes = (
"155 560 LINE",
"211 500 LINE",
"-9 500 LINE",
"-9 589 LINE",
"169 -75 LINE",
"137 0 LINE",
"227 0 LINE",
"245 247 LINE",
"312 -79 LINE"
);
}
);
width = 502;
}
);
unicode = 0667;
},
{
glyphname = "nine-ar";
layers = (
{
layerId = "3DD6C797-E5ED-486C-89DE-75EDF9B2F8B8";
paths = (
{
closed = 1;
nodes = (
"438 481 LINE",
"509 426 LINE",
"43 554 LINE",
"143 584 LINE",
"80 352 LINE",
"15 405 LINE",
"470 280 LINE",
"375 249 LINE"
);
},
{
closed = 1;
nodes = (
"281 261 LINE",
"355 206 LINE",
"-97 323 LINE",
"62 323 LINE",
"2 90 LINE",
"-116 175 LINE",
"316 58 LINE",
"221 26 LINE"
);
},
{
closed = 1;
nodes = (
"197 181 LINE",
"197 396 LINE",
"46 396 LINE",
"46 181 LINE"
);
},
{
closed = 1;
nodes = (
"406 0 LINE",
"406 405 LINE",
"255 405 LINE",
"255 -37 LINE"
);
}
);
width = 444;
}
);
unicode = 0669;
},
{
glyphname = "four-persian";
layers = (
{
layerId = "3DD6C797-E5ED-486C-89DE-75EDF9B2F8B8";
paths = (
{
closed = 1;
nodes = (
"166 347 LINE",
"15 388 LINE",
"15 41 LINE",
"166 0 LINE"
);
},
{
closed = 1;
nodes = (
"166 260 LINE",
"166 500 LINE",
"15 459 LINE",
"15 260 LINE"
);
},
{
closed = 1;
nodes = (
"397 235 LINE",
"336 180 LINE",
"273 412 LINE",
"358 381 LINE",
"124 317 LINE",
"163 171 LINE"
);
},
{
closed = 1;
nodes = (
"313 260 LINE",
"313 545 LINE",
"356 504 LINE",
"149 448 LINE",
"218 504 LINE",
"218 260 LINE"
);
},
{
closed = 1;
nodes = (
"501 223 LINE",
"462 369 LINE",
"271 317 LINE",
"310 171 LINE"
);
},
{
closed = 1;
nodes = (
"491 461 LINE",
"414 323 LINE",
"351 555 LINE",
"452 531 LINE",
"218 467 LINE",
"269 278 LINE",
"214 385 LINE"
);
}
);
width = 516;
}
);
unicode = 06F4;
},
{
glyphname = "five-persian";
layers = (
{
components = (
{
name = "five-ar";
}
);
layerId = "3DD6C797-E5ED-486C-89DE-75EDF9B2F8B8";
paths = (
{
closed = 1;
nodes = (
"206 41 LINE",
"227 39 LINE",
"245 248 LINE",
"224 250 LINE"
);
}
);
width = 447;
}
);
unicode = 06F5;
},
{
glyphname = "six-persian";
layers = (
{
layerId = "3DD6C797-E5ED-486C-89DE-75EDF9B2F8B8";
paths = (
{
closed = 1;
nodes = (
"90 247 LINE",
"31 220 LINE",
"99 85 LINE",
"269 164 LINE",
"335 300 LINE",
"120 400 LINE",
"362 356 LINE",
"422 500 LINE",
"153 547 LINE",
"-5 241 LINE",
"-41 307 LINE"
);
}
);
width = 437;
}
);
unicode = 06F6;
},
{
glyphname = comma;
layers = (
{
components = (
{
name = "fullstop-ar";
}
);
layerId = "3DD6C797-E5ED-486C-89DE-75EDF9B2F8B8";
paths = (
{
closed = 1;
nodes = (
"92 -80 LINE",
"135 -91 LINE",
"171 44 LINE",
"126 47 LINE"
);
}
);
width = 219;
}
);
unicode = 002C;
},
{
glyphname = exclam;
layers = (
{
layerId = "3DD6C797-E5ED-486C-89DE-75EDF9B2F8B8";
paths = (
{
closed = 1;
nodes = (
"180 194 LINE",
"190 604 LINE",
"39 604 LINE",
"49 194 LINE"
);
},
{
closed = 1;
nodes = (
"198 117 LINE",
"60 155 LINE",
"30 40 LINE",
"167 2 LINE"
);
}
);
width = 228;
}
);
unicode = 0021;
},
{
glyphname = question;
layers = (
{
layerId = "3DD6C797-E5ED-486C-89DE-75EDF9B2F8B8";
paths = (
{
closed = 1;
nodes = (
"415 467 LINE",
"396 414 LINE",
"333 646 LINE",
"387 616 LINE",
"-79 488 LINE",
"6 547 LINE",
"69 315 LINE",
"-40 342 LINE"
);
},
{
closed = 1;
nodes = (
"40 83 LINE",
"406 183 LINE",
"363 127 LINE",
"363 360 LINE",
"369 327 LINE",
"40 232 LINE",
"72 281 LINE",
"132 46 LINE"
);
},
{
closed = 1;
nodes = (
"363 480 LINE",
"212 480 LINE",
"212 302 LINE",
"363 302 LINE"
);
},
{
closed = 1;
nodes = (
"232 162 LINE",
"81 244 LINE",
"81 31 LINE",
"232 72 LINE"
);
},
{
closed = 1;
nodes = (
"300 -49 LINE",
"268 -85 LINE",
"238 31 LINE",
"90 -9 LINE",
"120 -126 LINE",
"66 -114 LINE"
);
}
);
width = 399;
}
);
unicode = 003F;
},
{
glyphname = asterisk;
layers = (
{
layerId = "3DD6C797-E5ED-486C-89DE-75EDF9B2F8B8";
paths = (
{
closed = 1;
nodes = (
"73 312 LINE",
"337 523 LINE",
"341 483 LINE",
"255 590 LINE",
"273 582 LINE",
"27 386 LINE",
"28 392 LINE",
"105 291 LINE"
);
},
{
closed = 1;
nodes = (
"322 392 LINE",
"323 386 LINE",
"77 582 LINE",
"95 590 LINE",
"9 483 LINE",
"13 523 LINE",
"277 312 LINE",
"245 291 LINE"
);
},
{
closed = 1;
nodes = (
"132 297 LINE",
"218 297 LINE",
"218 598 LINE",
"132 598 LINE"
);
}
);
width = 350;
}
);
unicode = 002A;
},
{
glyphname = numbersign;
layers = (
{
components = (
{
name = backslash;
transform = "{-0.68301, 0, 0, 0.68301, 368, 101}";
},
{
name = backslash;
transform = "{-0.68301, 0, 0, 0.68301, 554, 101}";
}
);
layerId = "3DD6C797-E5ED-486C-89DE-75EDF9B2F8B8";
paths = (
{
closed = 1;
nodes = (
"86 349 LINE",
"559 349 LINE",
"595 452 LINE",
"121 452 LINE"
);
},
{
closed = 1;
nodes = (
"30 196 LINE",
"504 196 LINE",
"539 299 LINE",
"66 299 LINE"
);
}
);
width = 625;
}
);
unicode = 0023;
},
{
glyphname = backslash;
layers = (
{
layerId = "3DD6C797-E5ED-486C-89DE-75EDF9B2F8B8";
paths = (
{
closed = 1;
nodes = (
"420 39 LINE",
"439 -67 LINE",
"159 700 LINE",
"30 613 LINE",
"285 -87 LINE",
"267 -64 LINE"
);
}
);
width = 434;
}
);
unicode = 005C;
},
{
glyphname = braceleft;
layers = (
{
layerId = "3DD6C797-E5ED-486C-89DE-75EDF9B2F8B8";
paths = (
{
closed = 1;
nodes = (
"294 37 LINE",
"294 308 LINE",
"143 308 LINE",
"143 -24 LINE"
);
},
{
closed = 1;
nodes = (
"312 340 LINE",
"345 278 LINE",
"43 455 LINE",
"117 441 LINE",
"-2 232 LINE",
"-22 319 LINE",
"270 147 LINE",
"193 131 LINE"
);
},
{
closed = 1;
nodes = (
"143 392 LINE",
"294 392 LINE",
"294 663 LINE",
"143 724 LINE"
);
},
{
closed = 1;
nodes = (
"270 553 LINE",
"-22 381 LINE",
"-2 468 LINE",
"117 259 LINE",
"43 245 LINE",
"345 422 LINE",
"312 360 LINE",
"193 569 LINE"
);
}
);
width = 324;
}
);
unicode = 007B;
},
{
glyphname = bracketright;
layers = (
{
layerId = "3DD6C797-E5ED-486C-89DE-75EDF9B2F8B8";
paths = (
{
closed = 1;
nodes = (
"143 55 LINE",
"294 55 LINE",
"294 421 LINE",
"143 387 LINE"
);
},
{
closed = 1;
nodes = (
"270 216 LINE",
"-22 44 LINE",
"-2 131 LINE",
"117 -78 LINE",
"43 -92 LINE",
"345 85 LINE",
"312 23 LINE",
"193 232 LINE"
);
},
{
closed = 1;
nodes = (
"294 372 LINE",
"294 643 LINE",
"143 643 LINE",
"143 311 LINE"
);
},
{
closed = 1;
nodes = (
"312 675 LINE",
"345 613 LINE",
"43 790 LINE",
"117 776 LINE",
"-2 567 LINE",
"-22 654 LINE",
"270 482 LINE",
"193 466 LINE"
);
}
);
width = 324;
}
);
unicode = 005D;
},
{
glyphname = hyphen;
layers = (
{
layerId = "3DD6C797-E5ED-486C-89DE-75EDF9B2F8B8";
paths = (
{
closed = 1;
nodes = (
"380 394 LINE",
"481 348 LINE",
"0 393 LINE",
"48 442 LINE",
"26 203 LINE",
"-2 262 LINE",
"468 217 LINE",
"358 154 LINE"
);
}
);
width = 408;
}
);
unicode = 002D;
},
{
glyphname = underscore;
layers = (
{
layerId = "3DD6C797-E5ED-486C-89DE-75EDF9B2F8B8";
paths = (
{
closed = 1;
nodes = (
"374 -48 LINE",
"475 -94 LINE",
"-6 -49 LINE",
"42 0 LINE",
"20 -239 LINE",
"-8 -124 LINE",
"462 -169 LINE",
"352 -288 LINE"
);
}
);
width = 401;
}
);
unicode = 005F;
},
{
glyphname = quoteright;
layers = (
{
layerId = "3DD6C797-E5ED-486C-89DE-75EDF9B2F8B8";
paths = (
{
closed = 1;
nodes = (
"205 664 LINE",
"79 700 LINE",
"30 473 LINE",
"155 437 LINE"
);
}
);
width = 235;
}
);
unicode = 2019;
},
{
glyphname = guilsinglleft;
layers = (
{
layerId = "3DD6C797-E5ED-486C-89DE-75EDF9B2F8B8";
paths = (
{
closed = 1;
nodes = (
"312 131 LINE",
"312 123 LINE",
"8 468 LINE",
"136 371 LINE",
"14 233 LINE",
"-101 400 LINE",
"228 28 LINE",
"177 5 LINE"
);
},
{
closed = 1;
nodes = (
"364 110 LINE",
"354 60 LINE",
"268 243 LINE",
"309 224 LINE",
"104 129 LINE",
"139 208 LINE",
"223 27 LINE",
"157 15 LINE"
);
},
{
closed = 1;
nodes = (
"3 28 LINE",
"331 400 LINE",
"345 343 LINE",
"194 475 LINE",
"223 468 LINE",
"-82 123 LINE",
"14 269 LINE",
"136 132 LINE"
);
},
{
closed = 1;
nodes = (
"351 440 LINE",
"361 390 LINE",
"154 485 LINE",
"220 473 LINE",
"137 292 LINE",
"101 371 LINE",
"307 276 LINE",
"265 258 LINE"
);
}
);
width = 366;
}
);
unicode = 2039;
},
{
glyphname = quotesingle;
layers = (
{
layerId = "3DD6C797-E5ED-486C-89DE-75EDF9B2F8B8";
paths = (
{
closed = 1;
nodes = (
"189 664 LINE",
"59 700 LINE",
"54 473 LINE",
"183 437 LINE"
);
}
);
width = 219;
}
);
unicode = 0027;
},
{
glyphname = "fullstop-ar";
layers = (
{
layerId = "3DD6C797-E5ED-486C-89DE-75EDF9B2F8B8";
paths = (
{
closed = 1;
nodes = (
"189 109 LINE",
"59 145 LINE",
"30 36 LINE",
"159 0 LINE"
);
}
);
width = 219;
}
);
unicode = 06D4;
},
{
glyphname = cent;
layers = (
{
components = (
{
name = c;
}
);
layerId = "3DD6C797-E5ED-486C-89DE-75EDF9B2F8B8";
paths = (
{
closed = 1;
nodes = (
"242 295 LINE",
"294 606 LINE",
"381 554 LINE",
"213 585 LINE",
"167 317 LINE",
"147 429 LINE",
"347 395 LINE"
);
},
{
closed = 1;
nodes = (
"166 -178 LINE",
"218 133 LINE",
"305 81 LINE",
"137 112 LINE",
"91 -156 LINE",
"71 -44 LINE",
"271 -78 LINE"
);
}
);
width = 394;
}
);
unicode = 00A2;
},
{
glyphname = currency;
layers = (
{
components = (
{
name = o;
transform = "{0.83333, 0, 0, 0.83333, 76, 143}";
}
);
layerId = "3DD6C797-E5ED-486C-89DE-75EDF9B2F8B8";
paths = (
{
closed = 1;
nodes = (
"254 356 LINE",
"474 532 LINE",
"477 498 LINE",
"405 588 LINE",
"420 581 LINE",
"215 418 LINE",
"265 481 LINE",
"329 397 LINE"
);
},
{
closed = 1;
nodes = (
"-7 61 LINE",
"213 237 LINE",
"217 204 LINE",
"145 293 LINE",
"160 286 LINE",
"-45 123 LINE",
"4 186 LINE",
"68 102 LINE"
);
},
{
closed = 1;
nodes = (
"210 481 LINE",
"260 417 LINE",
"55 581 LINE",
"70 587 LINE",
"-2 498 LINE",
"1 531 LINE",
"221 356 LINE",
"146 396 LINE"
);
},
{
closed = 1;
nodes = (
"471 186 LINE",
"520 123 LINE",
"315 286 LINE",
"330 293 LINE",
"259 204 LINE",
"262 237 LINE",
"482 61 LINE",
"407 102 LINE"
);
}
);
width = 475;
}
);
unicode = 00A4;
},
{
glyphname = dollar;
layers = (
{
components = (
{
name = S;
transform = "{0.83333, 0, 0, 0.83333, 2, 2}";
}
);
layerId = "3DD6C797-E5ED-486C-89DE-75EDF9B2F8B8";
paths = (
{
closed = 1;
nodes = (
"292 345 LINE",
"337 612 LINE",
"213 635 LINE",
"167 367 LINE",
"147 479 LINE",
"347 445 LINE"
);
},
{
closed = 1;
nodes = (
"228 -187 LINE",
"274 80 LINE",
"150 103 LINE",
"104 -165 LINE",
"84 -53 LINE",
"283 -87 LINE"
);
}
);
width = 420;
}
);
unicode = 0024;
},
{
glyphname = euro;
layers = (
{
components = (
{
name = C;
transform = "{1, 0, 0, 1, 12, 0}";
}
);
layerId = "3DD6C797-E5ED-486C-89DE-75EDF9B2F8B8";
paths = (
{
closed = 1;
nodes = (
"15 345 LINE",
"339 345 LINE",
"339 402 LINE",
"15 402 LINE"
);
},
{
closed = 1;
nodes = (
"15 241 LINE",
"339 241 LINE",
"339 298 LINE",
"15 298 LINE"
);
}
);
width = 503;
}
);
unicode = 20AC;
},
{
glyphname = plus;
layers = (
{
layerId = "3DD6C797-E5ED-486C-89DE-75EDF9B2F8B8";
paths = (
{
closed = 1;
nodes = (
"30 195 LINE",
"435 195 LINE",
"435 312 LINE",
"30 312 LINE"
);
},
{
closed = 1;
nodes = (
"291 51 LINE",
"291 456 LINE",
"174 456 LINE",
"174 51 LINE"
);
}
);
width = 600;
}
);
unicode = 002B;
},
{
glyphname = minus;
layers = (
{
layerId = "3DD6C797-E5ED-486C-89DE-75EDF9B2F8B8";
paths = (
{
closed = 1;
nodes = (
"30 195 LINE",
"345 195 LINE",
"345 312 LINE",
"30 312 LINE"
);
}
);
width = 375;
}
);
unicode = 2212;
},
{
glyphname = multiply;
layers = (
{
layerId = "3DD6C797-E5ED-486C-89DE-75EDF9B2F8B8";
paths = (
{
closed = 1;
nodes = (
"388 141 LINE",
"388 134 LINE",
"109 450 LINE",
"135 456 LINE",
"-3 335 LINE",
"10 387 LINE",
"311 47 LINE",
"265 25 LINE"
);
},
{
closed = 1;
nodes = (
"105 47 LINE",
"406 387 LINE",
"419 335 LINE",
"281 456 LINE",
"307 450 LINE",
"28 134 LINE",
"28 141 LINE",
"151 25 LINE"
);
}
);
width = 416;
}
);
unicode = 00D7;
},
{
glyphname = divide;
layers = (
{
layerId = "3DD6C797-E5ED-486C-89DE-75EDF9B2F8B8";
paths = (
{
closed = 1;
nodes = (
"30 195 LINE",
"385 195 LINE",
"385 312 LINE",
"30 312 LINE"
);
},
{
closed = 1;
nodes = (
"165 394 LINE",
"251 394 LINE",
"251 480 LINE",
"165 480 LINE"
);
},
{
closed = 1;
nodes = (
"251 27 LINE",
"251 113 LINE",
"165 113 LINE",
"165 27 LINE"
);
}
);
width = 415;
}
);
unicode = 00F7;
},
{
glyphname = equal;
layers = (
{
layerId = "3DD6C797-E5ED-486C-89DE-75EDF9B2F8B8";
paths = (
{
closed = 1;
nodes = (
"30 111 LINE",
"345 111 LINE",
"345 228 LINE",
"30 228 LINE"
);
},
{
closed = 1;
nodes = (
"30 266 LINE",
"345 266 LINE",
"345 383 LINE",
"30 383 LINE"
);
}
);
width = 375;
}
);
unicode = 003D;
},
{
glyphname = notequal;
layers = (
{
components = (
{
name = equal;
}
);
layerId = "3DD6C797-E5ED-486C-89DE-75EDF9B2F8B8";
paths = (
{
closed = 1;
nodes = (
"99 62 LINE",
"175 41 LINE",
"280 433 LINE",
"204 454 LINE"
);
}
);
width = 375;
}
);
unicode = 2260;
},
{
glyphname = greater;
layers = (
{
layerId = "3DD6C797-E5ED-486C-89DE-75EDF9B2F8B8";
paths = (
{
closed = 1;
nodes = (
"151 458 LINE",
"31 403 LINE",
"14 423 LINE",
"166 251 LINE",
"-2 62 LINE",
"29 98 LINE",
"149 42 LINE",
"334 251 LINE"
);
}
);
width = 364;
}
);
unicode = 003E;
},
{
export = 0;
glyphname = leftArrow;
layers = (
{
layerId = "3DD6C797-E5ED-486C-89DE-75EDF9B2F8B8";
paths = (
{
closed = 1;
nodes = (
"200 42 LINE",
"320 98 LINE",
"351 62 LINE",
"183 251 LINE",
"335 423 LINE",
"318 403 LINE",
"198 458 LINE",
"15 251 LINE"
);
},
{
closed = 1;
nodes = (
"509 323 LINE",
"613 296 LINE",
"130 289 LINE",
"174 342 LINE",
"173 102 LINE",
"135 214 LINE",
"607 201 LINE",
"508 82 LINE"
);
}
);
width = 524;
}
);
unicode = 2190;
},
{
glyphname = at;
layers = (
{
layerId = "3DD6C797-E5ED-486C-89DE-75EDF9B2F8B8";
paths = (
{
closed = 1;
nodes = (
"837 603 LINE",
"414 719 LINE",
"435 749 LINE",
"372 517 LINE",
"386 570 LINE",
"798 457 LINE"
);
},
{
closed = 1;
nodes = (
"837 105 LINE",
"837 603 LINE",
"686 603 LINE",
"686 105 LINE"
);
},
{
closed = 1;
nodes = (
"408 -3 LINE",
"420 43 LINE",
"518 18 LINE",
"628 143 LINE",
"576 157 LINE",
"576 290 LINE",
"596 285 LINE",
"634 432 LINE",
"337 510 LINE",
"307 392 LINE",
"228 392 LINE",
"228 90 LINE",
"217 49 LINE"
);
},
{
closed = 1;
nodes = (
"379 343 LINE",
"425 331 LINE",
"425 150 LINE",
"379 162 LINE"
);
},
{
closed = 1;
nodes = (
"466 570 LINE",
"480 517 LINE",
"417 749 LINE",
"438 719 LINE",
"15 603 LINE",
"54 457 LINE"
);
},
{
closed = 1;
nodes = (
"166 603 LINE",
"15 603 LINE",
"15 119 LINE",
"166 119 LINE"
);
},
{
closed = 1;
nodes = (
"386 -83 LINE",
"372 -30 LINE",
"435 -262 LINE",
"414 -232 LINE",
"880 -104 LINE",
"837 -159 LINE",
"837 73 LINE",
"841 42 LINE"
);
},
{
closed = 1;
nodes = (
"15 -116 LINE",
"438 -232 LINE",
"417 -262 LINE",
"480 -30 LINE",
"466 -83 LINE",
"54 30 LINE"
);
},
{
closed = 1;
nodes = (
"15 368 LINE",
"15 -116 LINE",
"166 -116 LINE",
"166 368 LINE"
);
},
{
closed = 1;
nodes = (
"386 138 LINE",
"471 191 LINE",
"534 -41 LINE",
"414 -11 LINE",
"837 105 LINE",
"798 251 LINE"
);
}
);
width = 852;
}
);
unicode = 0040;
},
{
glyphname = ampersand;
layers = (
{
layerId = "3DD6C797-E5ED-486C-89DE-75EDF9B2F8B8";
paths = (
{
closed = 1;
nodes = (
"486 68 LINE",
"467 15 LINE",
"404 247 LINE",
"458 217 LINE",
"15 95 LINE",
"15 76 LINE",
"229 -49 LINE",
"31 -57 LINE"
);
},
{
closed = 1;
nodes = (
"415 363 LINE",
"264 363 LINE",
"264 181 LINE",
"415 181 LINE"
);
},
{
closed = 1;
nodes = (
"166 331 LINE",
"15 331 LINE",
"15 76 LINE",
"166 76 LINE"
);
},
{
closed = 1;
nodes = (
"314 256 LINE",
"290 212 LINE",
"218 478 LINE",
"269 401 LINE",
"15 331 LINE",
"54 185 LINE"
);
},
{
closed = 1;
nodes = (
"-12 412 LINE",
"443 537 LINE",
"333 458 LINE",
"270 690 LINE",
"415 686 LINE",
"-51 558 LINE",
"5 613 LINE",
"68 381 LINE"
);
},
{
closed = 1;
nodes = (
"166 576 LINE",
"15 576 LINE",
"15 375 LINE",
"166 333 LINE"
);
},
{
closed = 1;
nodes = (
"264 277 LINE",
"466 269 LINE",
"481 394 LINE",
"264 403 LINE"
);
}
);
width = 496;
}
);
unicode = 0026;
},
{
glyphname = section;
layers = (
{
layerId = "3DD6C797-E5ED-486C-89DE-75EDF9B2F8B8";
paths = (
{
closed = 1;
nodes = (
"433 496 LINE",
"413 448 LINE",
"204 699 LINE",
"89 601 LINE",
"297 351 LINE",
"247 341 LINE"
);
},
{
closed = 1;
nodes = (
"524 239 LINE",
"217 323 LINE",
"153 146 LINE",
"101 198 LINE",
"384 121 LINE"
);
},
{
closed = 1;
nodes = (
"558 267 LINE",
"558 383 LINE",
"398 572 LINE",
"439 582 LINE",
"256 426 LINE",
"283 474 LINE",
"499 218 LINE"
);
},
{
closed = 1;
nodes = (
"552 725 LINE",
"312 790 LINE",
"172 672 LINE",
"479 588 LINE"
);
},
{
closed = 1;
nodes = (
"359 244 LINE",
"339 196 LINE",
"130 447 LINE",
"15 349 LINE",
"223 99 LINE",
"173 89 LINE"
);
},
{
closed = 1;
nodes = (
"450 -29 LINE",
"143 55 LINE",
"70 -82 LINE",
"310 -147 LINE"
);
},
{
closed = 1;
nodes = (
"484 -1 LINE",
"484 115 LINE",
"324 304 LINE",
"365 314 LINE",
"182 158 LINE",
"209 206 LINE",
"425 -50 LINE"
);
},
{
closed = 1;
nodes = (
"478 473 LINE",
"238 538 LINE",
"98 420 LINE",
"405 336 LINE"
);
}
);
width = 573;
}
);
unicode = 00A7;
},
{
glyphname = copyright;
layers = (
{
layerId = "3DD6C797-E5ED-486C-89DE-75EDF9B2F8B8";
paths = (
{
closed = 1;
nodes = (
"441 735 LINE",
"229 793 LINE",
"240 808 LINE",
"208 692 LINE",
"215 719 LINE",
"421 662 LINE"
);
},
{
closed = 1;
nodes = (
"441 421 LINE",
"441 735 LINE",
"365 735 LINE",
"365 421 LINE"
);
},
{
closed = 1;
nodes = (
"255 719 LINE",
"262 692 LINE",
"231 808 LINE",
"241 793 LINE",
"30 735 LINE",
"49 662 LINE"
);
},
{
closed = 1;
nodes = (
"105 735 LINE",
"30 735 LINE",
"30 493 LINE",
"105 493 LINE"
);
},
{
closed = 1;
nodes = (
"215 392 LINE",
"208 419 LINE",
"240 303 LINE",
"229 318 LINE",
"462 382 LINE",
"441 354 LINE",
"441 470 LINE",
"443 455 LINE"
);
},
{
closed = 1;
nodes = (
"30 376 LINE",
"241 318 LINE",
"231 303 LINE",
"262 419 LINE",
"255 392 LINE",
"49 449 LINE"
);
},
{
closed = 1;
nodes = (
"30 618 LINE",
"30 376 LINE",
"105 376 LINE",
"105 618 LINE"
);
},
{
closed = 1;
nodes = (
"299 623 LINE",
"188 652 LINE",
"174 597 LINE",
"285 567 LINE"
);
},
{
closed = 1;
nodes = (
"267 527 LINE",
"267 506 LINE",
"179 530 LINE",
"165 475 LINE",
"253 451 LINE",
"244 440 LINE"
);
},
{
closed = 1;
nodes = (
"225 489 LINE",
"225 589 LINE",
"169 589 LINE",
"169 489 LINE"
);
},
{
closed = 1;
nodes = (
"326 498 LINE",
"309 471 LINE",
"263 550 LINE",
"298 547 LINE",
"218 502 LINE",
"247 453 LINE"
);
}
);
width = 471;
}
);
unicode = 00A9;
},
{
glyphname = registered;
layers = (
{
layerId = "3DD6C797-E5ED-486C-89DE-75EDF9B2F8B8";
paths = (
{
closed = 1;
nodes = (
"441 735 LINE",
"229 793 LINE",
"240 808 LINE",
"208 692 LINE",
"215 719 LINE",
"421 662 LINE"
);
},
{
closed = 1;
nodes = (
"441 421 LINE",
"441 735 LINE",
"365 735 LINE",
"365 421 LINE"
);
},
{
closed = 1;
nodes = (
"255 719 LINE",
"262 692 LINE",
"231 808 LINE",
"241 793 LINE",
"30 735 LINE",
"49 662 LINE"
);
},
{
closed = 1;
nodes = (
"105 735 LINE",
"30 735 LINE",
"30 493 LINE",
"105 493 LINE"
);
},
{
closed = 1;
nodes = (
"215 392 LINE",
"208 419 LINE",
"240 303 LINE",
"229 318 LINE",
"462 382 LINE",
"441 354 LINE",
"441 470 LINE",
"443 455 LINE"
);
},
{
closed = 1;
nodes = (
"30 376 LINE",
"241 318 LINE",
"231 303 LINE",
"262 419 LINE",
"255 392 LINE",
"49 449 LINE"
);
},
{
closed = 1;
nodes = (
"30 618 LINE",
"30 376 LINE",
"105 376 LINE",
"105 618 LINE"
);
},
{
closed = 1;
nodes = (
"296 647 LINE",
"305 632 LINE",
"161 646 LINE",
"175 657 LINE",
"169 586 LINE",
"161 601 LINE",
"301 587 LINE",
"289 576 LINE"
);
},
{
closed = 1;
nodes = (
"231 497 LINE",
"178 511 LINE",
"166 467 LINE",
"219 453 LINE"
);
},
{
closed = 1;
nodes = (
"231 497 LINE",
"178 511 LINE",
"166 467 LINE",
"219 453 LINE"
);
},
{
closed = 1;
nodes = (
"221 478 LINE",
"221 597 LINE",
"176 597 LINE",
"176 478 LINE"
);
},
{
closed = 1;
nodes = (
"302 497 LINE",
"250 511 LINE",
"238 467 LINE",
"290 453 LINE"
);
},
{
closed = 1;
nodes = (
"290 523 LINE",
"245 523 LINE",
"245 465 LINE",
"290 453 LINE"
);
},
{
closed = 1;
nodes = (
"290 523 LINE",
"290 551 LINE",
"307 543 LINE",
"210 570 LINE",
"227 592 LINE",
"212 536 LINE",
"295 513 LINE",
"285 509 LINE"
);
},
{
closed = 1;
nodes = (
"290 565 LINE",
"290 591 LINE",
"245 591 LINE",
"245 536 LINE"
);
}
);
width = 471;
}
);
unicode = 00AE;
},
{
glyphname = trademark;
layers = (
{
layerId = "3DD6C797-E5ED-486C-89DE-75EDF9B2F8B8";
paths = (
{
closed = 1;
nodes = (
"199 690 LINE",
"211 670 LINE",
"17 688 LINE",
"36 704 LINE",
"28 607 LINE",
"16 627 LINE",
"206 609 LINE",
"189 593 LINE"
);
},
{
closed = 1;
nodes = (
"143 486 LINE",
"73 506 LINE",
"57 447 LINE",
"128 427 LINE"
);
},
{
closed = 1;
nodes = (
"143 486 LINE",
"73 506 LINE",
"57 447 LINE",
"128 427 LINE"
);
},
{
closed = 1;
nodes = (
"84 493 LINE",
"99 497 LINE",
"130 497 LINE",
"130 618 LINE",
"70 618 LINE",
"70 493 LINE"
);
},
{
closed = 1;
nodes = (
"291 462 LINE",
"291 663 LINE",
"229 663 LINE",
"229 462 LINE"
);
},
{
closed = 1;
nodes = (
"304 487 LINE",
"233 506 LINE",
"217 447 LINE",
"288 427 LINE"
);
},
{
closed = 1;
nodes = (
"395 487 LINE",
"306 510 LINE",
"337 523 LINE",
"311 430 LINE",
"291 452 LINE",
"379 427 LINE"
);
},
{
closed = 1;
nodes = (
"295 679 LINE",
"313 657 LINE",
"225 681 LINE",
"209 622 LINE",
"298 598 LINE",
"270 586 LINE"
);
},
{
closed = 1;
nodes = (
"381 462 LINE",
"381 639 LINE",
"321 639 LINE",
"321 462 LINE"
);
},
{
closed = 1;
nodes = (
"486 487 LINE",
"397 510 LINE",
"428 523 LINE",
"403 430 LINE",
"381 452 LINE",
"470 427 LINE"
);
},
{
closed = 1;
nodes = (
"400 675 LINE",
"408 652 LINE",
"220 704 LINE",
"311 716 LINE",
"284 614 LINE",
"209 644 LINE",
"392 593 LINE",
"374 581 LINE"
);
},
{
closed = 1;
nodes = (
"472 462 LINE",
"472 639 LINE",
"411 639 LINE",
"411 462 LINE"
);
},
{
closed = 1;
nodes = (
"490 675 LINE",
"499 652 LINE",
"311 704 LINE",
"403 716 LINE",
"374 614 LINE",
"299 644 LINE",
"483 593 LINE",
"465 581 LINE"
);
}
);
width = 516;
}
);
unicode = 2122;
},
{
glyphname = bar;
layers = (
{
layerId = "3DD6C797-E5ED-486C-89DE-75EDF9B2F8B8";
paths = (
{
closed = 1;
nodes = (
"15 -94 LINE",
"90 -94 LINE",
"90 700 LINE",
"15 700 LINE"
);
}
);
width = 105;
}
);
unicode = 007C;
},
{
glyphname = brokenbar;
layers = (
{
layerId = "3DD6C797-E5ED-486C-89DE-75EDF9B2F8B8";
paths = (
{
closed = 1;
nodes = (
"15 418 LINE",
"90 418 LINE",
"90 700 LINE",
"15 700 LINE"
);
},
{
closed = 1;
nodes = (
"15 0 LINE",
"90 0 LINE",
"90 282 LINE",
"15 282 LINE"
);
}
);
width = 105;
}
);
unicode = 00A6;
},
{
glyphname = dieresiscomb;
layers = (
{
anchors = (
{
name = _top;
position = "{173, 500}";
},
{
name = top;
position = "{173, 700}";
}
);
layerId = "3DD6C797-E5ED-486C-89DE-75EDF9B2F8B8";
paths = (
{
closed = 1;
nodes = (
"227 690 LINE",
"258 590 LINE",
"-4 662 LINE",
"51 738 LINE",
"0 549 LINE",
"173 500 LINE"
);
},
{
closed = 1;
nodes = (
"371 690 LINE",
"402 590 LINE",
"140 662 LINE",
"195 738 LINE",
"144 549 LINE",
"317 500 LINE"
);
}
);
width = 345;
}
);
unicode = 0308;
},
{
glyphname = dotaccentcomb;
layers = (
{
anchors = (
{
name = _top;
position = "{84, 500}";
},
{
name = top;
position = "{84, 652}";
}
);
layerId = "3DD6C797-E5ED-486C-89DE-75EDF9B2F8B8";
paths = (
{
closed = 1;
nodes = (
"199 689 LINE",
"240 589 LINE",
"-22 661 LINE",
"53 737 LINE",
"-10 505 LINE",
"-61 560 LINE",
"201 488 LINE",
"136 457 LINE"
);
}
);
width = 177;
}
);
unicode = 0307;
},
{
glyphname = gravecomb;
layers = (
{
anchors = (
{
name = _top;
position = "{110, 653}";
},
{
name = top;
position = "{110, 980}";
}
);
layerId = "3DD6C797-E5ED-486C-89DE-75EDF9B2F8B8";
paths = (
{
closed = 1;
nodes = (
"246 833 LINE",
"353 677 LINE",
"-113 895 LINE",
"47 882 LINE",
"-16 650 LINE",
"-141 746 LINE",
"314 621 LINE",
"183 601 LINE"
);
}
);
width = 220;
}
);
unicode = 0300;
},
{
glyphname = acutecomb;
layers = (
{
anchors = (
{
name = _top;
position = "{110, 653}";
},
{
name = top;
position = "{110, 980}";
}
);
layerId = "3DD6C797-E5ED-486C-89DE-75EDF9B2F8B8";
paths = (
{
closed = 1;
nodes = (
"-94 621 LINE",
"361 746 LINE",
"236 650 LINE",
"173 882 LINE",
"333 895 LINE",
"-133 677 LINE",
"-26 833 LINE",
"37 601 LINE"
);
}
);
width = 220;
}
);
unicode = 0301;
},
{
glyphname = hungarumlautcomb;
layers = (
{
anchors = (
{
name = _top;
position = "{149.5, 500}";
},
{
name = top;
position = "{150, 773}";
}
);
layerId = "3DD6C797-E5ED-486C-89DE-75EDF9B2F8B8";
paths = (
{
closed = 1;
nodes = (
"168 479 LINE",
"320 699 LINE",
"348 634 LINE",
"196 739 LINE",
"233 751 LINE",
"119 506 LINE",
"107 552 LINE",
"204 484 LINE"
);
},
{
closed = 1;
nodes = (
"36 479 LINE",
"188 699 LINE",
"216 634 LINE",
"64 739 LINE",
"101 751 LINE",
"-13 506 LINE",
"-25 552 LINE",
"72 484 LINE"
);
}
);
width = 299;
}
);
unicode = 030B;
},
{
glyphname = circumflexcomb;
layers = (
{
anchors = (
{
name = _top;
position = "{121, 674}";
},
{
name = top;
position = "{121, 896}";
}
);
layerId = "3DD6C797-E5ED-486C-89DE-75EDF9B2F8B8";
paths = (
{
closed = 1;
nodes = (
"342 755 LINE",
"188 827 LINE",
"74 671 LINE",
"15 746 LINE",
"318 663 LINE",
"284 627 LINE",
"331 799 LINE"
);
},
{
closed = 1;
nodes = (
"212 738 LINE",
"188 827 LINE",
"0 739 LINE",
"14 684 LINE"
);
}
);
width = 322;
}
);
unicode = 0302;
},
{
glyphname = caroncomb;
layers = (
{
anchors = (
{
name = _top;
position = "{160, 669}";
},
{
name = top;
position = "{159.5, 823}";
}
);
layerId = "3DD6C797-E5ED-486C-89DE-75EDF9B2F8B8";
paths = (
{
closed = 1;
nodes = (
"274 869 LINE",
"318 833 LINE",
"89 741 LINE",
"74 825 LINE",
"188 669 LINE",
"343 772 LINE",
"331 727 LINE"
);
},
{
closed = 1;
nodes = (
"0 757 LINE",
"188 669 LINE",
"212 758 LINE",
"14 812 LINE"
);
}
);
width = 319;
}
);
unicode = 030C;
},
{
glyphname = brevecomb;
layers = (
{
anchors = (
{
name = _top;
position = "{107, 500}";
},
{
name = top;
position = "{107, 678}";
}
);
layerId = "3DD6C797-E5ED-486C-89DE-75EDF9B2F8B8";
paths = (
{
closed = 1;
nodes = (
"248 579 OFFCURVE",
"240 577 OFFCURVE",
"233 577 CURVE",
"168 577 OFFCURVE",
"110 609 OFFCURVE",
"75 658 CURVE",
"0 633 LINE",
"26 556 OFFCURVE",
"97 500 OFFCURVE",
"183 500 CURVE",
"215 500 OFFCURVE",
"261 518 OFFCURVE",
"288 532 CURVE",
"256 579 LINE"
);
}
);
width = 274;
}
);
unicode = 0306;
},
{
glyphname = ringcomb;
layers = (
{
anchors = (
{
name = _top;
position = "{130, 701}";
},
{
name = top;
position = "{130, 954}";
}
);
layerId = "3DD6C797-E5ED-486C-89DE-75EDF9B2F8B8";
paths = (
{
closed = 1;
nodes = (
"212 827 LINE",
"287 717 LINE",
"-41 871 LINE",
"71 862 LINE",
"27 698 LINE",
"-61 766 LINE",
"260 678 LINE",
"167 664 LINE"
);
},
{
closed = 1;
nodes = (
"38 739 LINE",
"103 739 LINE",
"103 897 LINE",
"38 897 LINE"
);
},
{
closed = 1;
nodes = (
"48 807 LINE",
"-27 917 LINE",
"301 763 LINE",
"189 772 LINE",
"233 936 LINE",
"321 868 LINE",
"0 956 LINE",
"93 970 LINE"
);
},
{
closed = 1;
nodes = (
"222 895 LINE",
"157 895 LINE",
"157 737 LINE",
"222 737 LINE"
);
}
);
width = 260;
}
);
unicode = 030A;
},
{
glyphname = tildecomb;
layers = (
{
anchors = (
{
name = _top;
position = "{153, 664}";
},
{
name = top;
position = "{153, 829}";
}
);
layerId = "3DD6C797-E5ED-486C-89DE-75EDF9B2F8B8";
paths = (
{
closed = 1;
nodes = (
"281 833 LINE",
"431 677 LINE",
"-35 895 LINE",
"125 882 LINE",
"62 650 LINE",
"-63 746 LINE",
"392 621 LINE",
"218 601 LINE"
);
},
{
closed = 1;
nodes = (
"-35 610 LINE",
"252 814 LINE",
"189 714 LINE",
"86 861 LINE",
"194 911 LINE",
"-77 639 LINE",
"-41 776 LINE",
"62 629 LINE"
);
},
{
closed = 1;
nodes = (
"380 881 LINE",
"93 677 LINE",
"156 777 LINE",
"259 630 LINE",
"151 580 LINE",
"422 852 LINE",
"386 715 LINE",
"283 862 LINE"
);
}
);
width = 345;
}
);
unicode = 0303;
},
{
glyphname = macroncomb;
layers = (
{
anchors = (
{
name = _top;
position = "{162, 550}";
},
{
name = top;
position = "{162, 697}";
}
);
layerId = "3DD6C797-E5ED-486C-89DE-75EDF9B2F8B8";
paths = (
{
closed = 1;
nodes = (
"-107 571 LINE",
"364 599 LINE",
"326 543 LINE",
"313 783 LINE",
"368 700 LINE",
"-133 634 LINE",
"-6 764 LINE",
"7 524 LINE"
);
}
);
width = 323;
}
);
unicode = 0304;
},
{
glyphname = commaturnedabovecomb;
layers = (
{
anchors = (
{
name = _top;
position = "{82.5, 500}";
},
{
name = top;
position = "{82.5, 723}";
}
);
layerId = "3DD6C797-E5ED-486C-89DE-75EDF9B2F8B8";
paths = (
{
closed = 1;
nodes = (
"128 745 LINE",
"-21 522 LINE",
"-51 587 LINE",
"104 484 LINE",
"67 472 LINE",
"177 719 LINE",
"189 673 LINE",
"92 739 LINE"
);
},
{
closed = 1;
nodes = (
"38 500 LINE",
"165 500 LINE",
"165 592 LINE",
"38 592 LINE"
);
}
);
width = 165;
}
);
unicode = 0312;
},
{
glyphname = commaaccentcomb;
layers = (
{
anchors = (
{
name = _bottom;
position = "{287.5, 0}";
},
{
name = bottom;
position = "{287.5, -266}";
}
);
layerId = "3DD6C797-E5ED-486C-89DE-75EDF9B2F8B8";
paths = (
{
closed = 1;
nodes = (
"240 -286 LINE",
"392 -66 LINE",
"420 -131 LINE",
"268 -26 LINE",
"305 -14 LINE",
"191 -259 LINE",
"179 -213 LINE",
"276 -281 LINE"
);
}
);
width = 600;
}
);
unicode = 0326;
},
{
glyphname = cedillacomb;
layers = (
{
anchors = (
{
name = _bottom;
position = "{45, -12}";
},
{
name = bottom;
position = "{92, -269}";
}
);
layerId = "3DD6C797-E5ED-486C-89DE-75EDF9B2F8B8";
paths = (
{
closed = 1;
nodes = (
"174 -143 LINE",
"249 -253 LINE",
"-79 -99 LINE",
"33 -108 LINE",
"-11 -272 LINE",
"-99 -204 LINE",
"222 -292 LINE",
"129 -306 LINE"
);
},
{
closed = 1;
nodes = (
"10 -164 LINE",
"-65 -54 LINE",
"263 -208 LINE",
"151 -199 LINE",
"195 -35 LINE",
"283 -103 LINE",
"-38 -15 LINE",
"55 -11 LINE"
);
},
{
closed = 1;
nodes = (
"184 -76 LINE",
"119 -76 LINE",
"119 -234 LINE",
"184 -234 LINE"
);
},
{
closed = 1;
nodes = (
"63 0 LINE",
"28 0 LINE",
"28 -98 LINE",
"63 -98 LINE"
);
}
);
width = 184;
}
);
unicode = 0327;
},
{
glyphname = ogonekcomb;
layers = (
{
anchors = (
{
name = _ogonek;
position = "{56, 26}";
}
);
layerId = "3DD6C797-E5ED-486C-89DE-75EDF9B2F8B8";
paths = (
{
closed = 1;
nodes = (
"204 -108 OFFCURVE",
"197 -108 OFFCURVE",
"191 -108 CURVE",
"138 -108 OFFCURVE",
"91 -82 OFFCURVE",
"62 -42 CURVE",
"0 -63 LINE",
"21 -126 OFFCURVE",
"81 -171 OFFCURVE",
"151 -171 CURVE",
"178 -171 OFFCURVE",
"203 -164 OFFCURVE",
"225 -152 CURVE",
"210 -107 LINE"
);
},
{
closed = 1;
nodes = (
"91 3 LINE",
"24 47 LINE",
"77 60 LINE",
"-8 -76 LINE",
"-12 -55 LINE",
"77 -113 LINE",
"15 -118 LINE"
);
}
);
width = 225;
}
);
unicode = 0328;
},
{
glyphname = "tahabove-ar";
layers = (
{
anchors = (
{
name = _top;
position = "{87, 500}";
},
{
name = top;
position = "{87, 723}";
}
);
layerId = "3DD6C797-E5ED-486C-89DE-75EDF9B2F8B8";
paths = (
{
closed = 1;
nodes = (
"193 545 LINE",
"182 522 LINE",
"145 604 LINE",
"171 596 LINE",
"-51 539 LINE",
"-9 572 LINE",
"29 490 LINE",
"-30 485 LINE"
);
},
{
closed = 1;
nodes = (
"165 636 LINE",
"186 620 LINE",
"-13 676 LINE",
"37 675 LINE",
"10 590 LINE",
"-28 620 LINE",
"166 567 LINE",
"140 550 LINE"
);
},
{
closed = 1;
nodes = (
"10 554 LINE",
"65 554 LINE",
"65 693 LINE",
"10 693 LINE"
);
}
);
width = 174;
}
);
unicode = 0615;
},
{
glyphname = "dotabove-ar";
layers = (
{
anchors = (
{
name = _top;
position = "{84, 500}";
},
{
name = top;
position = "{84, 653}";
}
);
layerId = "3DD6C797-E5ED-486C-89DE-75EDF9B2F8B8";
paths = (
{
closed = 1;
nodes = (
"167 541 LINE",
"148 613 LINE",
"0 573 LINE",
"19 500 LINE"
);
}
);
width = 167;
}
);
},
{
glyphname = "twodotsverticalabove-ar";
layers = (
{
anchors = (
{
name = _top;
position = "{84, 500}";
},
{
name = top;
position = "{84, 751}";
}
);
layerId = "3DD6C797-E5ED-486C-89DE-75EDF9B2F8B8";
paths = (
{
closed = 1;
nodes = (
"167 642 LINE",
"148 714 LINE",
"0 674 LINE",
"19 601 LINE"
);
},
{
closed = 1;
nodes = (
"167 541 LINE",
"148 613 LINE",
"0 573 LINE",
"19 500 LINE"
);
}
);
width = 167;
}
);
},
{
glyphname = "threedotsupabove-ar";
layers = (
{
anchors = (
{
name = _top;
position = "{96, 453}";
},
{
name = top;
position = "{96, 646}";
}
);
layerId = "3DD6C797-E5ED-486C-89DE-75EDF9B2F8B8";
paths = (
{
closed = 1;
nodes = (
"-52 488 LINE",
"167 548 LINE",
"148 620 LINE",
"-71 560 LINE",
"-9 616 LINE",
"32 456 LINE"
);
},
{
closed = 1;
nodes = (
"85 472 LINE",
"202 504 LINE",
"202 411 LINE",
"148 620 LINE",
"-71 560 LINE",
"65 645 LINE",
"128 399 LINE"
);
}
);
width = 180;
}
);
},
{
glyphname = "wasla-ar";
layers = (
{
anchors = (
{
name = _top;
position = "{90, 500}";
},
{
name = top;
position = "{90, 690}";
}
);
layerId = "3DD6C797-E5ED-486C-89DE-75EDF9B2F8B8";
paths = (
{
closed = 1;
nodes = (
"198 545 LINE",
"187 522 LINE",
"150 604 LINE",
"176 596 LINE",
"-46 539 LINE",
"-4 572 LINE",
"34 490 LINE",
"-25 485 LINE"
);
},
{
closed = 1;
nodes = (
"169 636 LINE",
"190 620 LINE",
"-9 676 LINE",
"20 675 LINE",
"-7 590 LINE",
"-24 620 LINE",
"170 567 LINE",
"144 550 LINE"
);
},
{
closed = 1;
nodes = (
"-19 605 LINE",
"-27 674 LINE",
"43 519 LINE",
"21 533 LINE",
"103 567 LINE",
"97 539 LINE",
"26 693 LINE",
"82 605 LINE"
);
}
);
width = 179;
}
);
},
{
glyphname = "gafsarkashabove-ar";
layers = (
{
anchors = (
{
name = _top;
position = "{96, 500}";
},
{
name = top;
position = "{96, 566}";
}
);
layerId = "3DD6C797-E5ED-486C-89DE-75EDF9B2F8B8";
paths = (
{
closed = 1;
nodes = (
"-14 498 LINE",
"210 530 LINE",
"197 501 LINE",
"185 570 LINE",
"206 548 LINE",
"-9 518 LINE",
"-3 537 LINE",
"6 484 LINE"
);
}
);
width = 192;
}
);
},
{
glyphname = "hamzaabove-ar";
layers = (
{
anchors = (
{
name = _top;
position = "{88, 500}";
},
{
name = top;
position = "{88, 708}";
}
);
layerId = "3DD6C797-E5ED-486C-89DE-75EDF9B2F8B8";
paths = (
{
closed = 1;
nodes = (
"143 611 LINE",
"164 595 LINE",
"0 641 LINE",
"25 650 LINE",
"-2 565 LINE",
"-19 587 LINE",
"144 542 LINE",
"118 525 LINE"
);
},
{
closed = 1;
nodes = (
"141 696 LINE",
"163 684 LINE",
"-8 687 LINE",
"51 731 LINE",
"17 625 LINE",
"-1 632 LINE",
"144 628 LINE",
"120 607 LINE"
);
},
{
closed = 1;
nodes = (
"193 545 LINE",
"182 522 LINE",
"159 611 LINE",
"171 596 LINE",
"-52 536 LINE",
"-9 572 LINE",
"13 487 LINE",
"-30 485 LINE"
);
}
);
width = 174;
}
);
unicode = 0654;
},
{
glyphname = "dammatan-ar";
layers = (
{
components = (
{
name = "damma-ar";
}
);
layerId = "3DD6C797-E5ED-486C-89DE-75EDF9B2F8B8";
paths = (
{
closed = 1;
nodes = (
"0 500 LINE",
"20 500 LINE",
"20 551 LINE",
"0 551 LINE"
);
}
);
width = 153;
}
);
unicode = 064C;
},
{
glyphname = "fatha-ar";
layers = (
{
anchors = (
{
name = _top;
position = "{76.5, 500}";
},
{
name = top;
position = "{77, 537}";
}
);
layerId = "3DD6C797-E5ED-486C-89DE-75EDF9B2F8B8";
paths = (
{
closed = 1;
nodes = (
"153 500 LINE",
"153 520 LINE",
"0 520 LINE",
"0 500 LINE"
);
}
);
width = 153;
}
);
unicode = 064E;
},
{
glyphname = "damma-ar";
layers = (
{
anchors = (
{
name = _top;
position = "{77, 500}";
},
{
name = top;
position = "{77, 612}";
}
);
layerId = "3DD6C797-E5ED-486C-89DE-75EDF9B2F8B8";
paths = (
{
closed = 1;
nodes = (
"153 500 LINE",
"153 520 LINE",
"0 520 LINE",
"0 500 LINE"
);
},
{
closed = 1;
nodes = (
"91 500 LINE",
"153 500 LINE",
"153 562 LINE",
"91 562 LINE"
);
}
);
width = 153;
}
);
unicode = 064F;
},
{
glyphname = "shadda-ar";
layers = (
{
anchors = (
{
name = _top;
position = "{77, 500}";
},
{
name = top;
position = "{77, 602}";
}
);
layerId = "3DD6C797-E5ED-486C-89DE-75EDF9B2F8B8";
paths = (
{
closed = 1;
nodes = (
"87 500 LINE",
"87 520 LINE",
"0 520 LINE",
"0 500 LINE"
);
},
{
closed = 1;
nodes = (
"20 552 LINE",
"0 552 LINE",
"0 500 LINE",
"20 500 LINE"
);
},
{
closed = 1;
nodes = (
"87 572 LINE",
"67 572 LINE",
"67 500 LINE",
"87 500 LINE"
);
},
{
closed = 1;
nodes = (
"134 510 LINE",
"134 530 LINE",
"67 530 LINE",
"67 510 LINE"
);
},
{
closed = 1;
nodes = (
"153 582 LINE",
"133 582 LINE",
"133 510 LINE",
"153 510 LINE"
);
}
);
width = 153;
}
);
unicode = 0651;
},
{
glyphname = "sukun-ar";
layers = (
{
anchors = (
{
name = _top;
position = "{47, 500}";
},
{
name = top;
position = "{47, 643}";
}
);
layerId = "3DD6C797-E5ED-486C-89DE-75EDF9B2F8B8";
paths = (
{
closed = 1;
nodes = (
"93 500 LINE",
"93 520 LINE",
"0 520 LINE",
"0 500 LINE"
);
},
{
closed = 1;
nodes = (
"20 593 LINE",
"0 593 LINE",
"0 500 LINE",
"20 500 LINE"
);
},
{
closed = 1;
nodes = (
"0 593 LINE",
"0 573 LINE",
"93 573 LINE",
"93 593 LINE"
);
},
{
closed = 1;
nodes = (
"73 500 LINE",
"93 500 LINE",
"93 593 LINE",
"73 593 LINE"
);
}
);
width = 93;
}
);
unicode = 0652;
},
{
glyphname = "madda-ar";
layers = (
{
anchors = (
{
name = _top;
position = "{99, 500}";
},
{
name = top;
position = "{99, 631}";
}
);
layerId = "3DD6C797-E5ED-486C-89DE-75EDF9B2F8B8";
paths = (
{
closed = 1;
nodes = (
"254 578 LINE",
"205 538 LINE",
"157 614 LINE",
"225 625 LINE",
"13 538 LINE",
"76 579 LINE",
"125 503 LINE",
"68 490 LINE"
);
},
{
closed = 1;
nodes = (
"136 575 LINE",
"169 559 LINE",
"5 605 LINE",
"30 614 LINE",
"4 529 LINE",
"-14 551 LINE",
"149 506 LINE",
"111 489 LINE"
);
},
{
closed = 1;
nodes = (
"4 605 LINE",
"37 640 LINE",
"-6 497 LINE",
"-14 523 LINE",
"71 494 LINE",
"42 457 LINE",
"89 619 LINE",
"113 575 LINE"
);
}
);
width = 197;
}
);
unicode = 0653;
},
